<svg xmlns="http://www.w3.org/2000/svg"><defs><font horiz-adv-x="1030"><font-face font-family="Entypo" font-weight="500" panose-1="2 0 6 3 0 0 0 0 0 0" ascent="850" descent="-150" bbox="14.0606 -150.5 1019.01 852.48" underline-thickness="50" underline-position="-100" unicode-range="U+002B-1F6AB"/><glyph glyph-name=".notdef" horiz-adv-x="364" d="M33 0v666h265v-666h-265zm33 33h199v600h-199v-600z"/><glyph glyph-name="glyph1" unicode="♫" horiz-adv-x="770" d="M221 714l534 116v-704q2-48-33-85t-83-55q-63-23-109-8t-63 64q-18 48 7 97 22 43 76 68.5t115 14.5v376l-354-82v-490q0-48-35-85t-83-55q-63-22-108.5-7.5t-61.5 63.5q-18 48 6 97 21 44 75.5 69.5t116.5 13.5v592z"/><glyph glyph-name="glyph2" unicode="🎵" horiz-adv-x="730" d="M615 800q42 0 71-29t29-71v-700q0-41-29.5-70.5t-70.5-29.5h-500q-40 0-70 30t-30 70v700q0 41 29.5 70.5t70.5 29.5h500zm-110-476q32 44 23 92-9 49-33 80-7 10-49 66-25 34-25 54h-60v-368q-41 16-90-2-36-12-62-44t-14-68q11-31 52-44.5t86 .5q88 30 88 98v262q31-5 52.5-29t20.5-55q-2-26-3-42-4-10 2-10 5 0 12 10z"/><glyph glyph-name="plus" unicode="+" horiz-adv-x="610" d="M565 400q30 0 30-50t-30-50h-210v-210q0-30-50-30t-50 30v210h-210q-30 0-30 50t30 50h210v210q0 30 50 30t50-30v-210h210z"/><glyph glyph-name="hyphen" unicode="-" horiz-adv-x="610" d="M565 400q30 0 30-50t-30-50h-520q-30 0-30 50t30 50h520z"/><glyph glyph-name="glyph0" unicode="♪" horiz-adv-x="612" d="M396 820q0-42 46-97 43-52 90-100 45-46 61-119 17-74-39-154-20-35-26-16-1 6 0 16 11 18 6 56-5 42-13 78-10 42-45 74.5t-80 39.5v-536q2-56-41.5-100.5t-100.5-65.5q-72-28-143-8-69 20-89 76-20 57 20 115 42 60 116 85 85 30 158 4v652h80z"/><glyph glyph-name="glyph3" unicode="🔍" horiz-adv-x="819" d="M787 78q30-34 6-62l-46-46q-36-32-68 0l-190 190q-73-42-156-42-128 0-223 95t-95 223 90 219 218 91q127 0 224-95 96-95 96-223 0-89-46-162zm-678 358q0-88 68-156t156-68 151 63 63 153q0 87-68 155-67 67-156 67-88 0-151-63t-63-151z"/><glyph glyph-name="glyph4" unicode="🔦" horiz-adv-x="932" d="M906 576q23-69-5-92l-134-134q-18-18-66.5-26.5t-91.5-3.5l-408-408q-18-18-57-6-37 11-74 48.5t-50 75.5q-14 38 5 56l408 408q-5 43 3.5 91.5t26.5 66.5l136 136q24 28 92 4t130-86q63-62 85-130zm-453-264q46 46 14 82-21 15-43 9t-39-23q-18-18-22.5-39t10.5-43q32-32 80 14zm256 284q24-24 61.5-46.5t68.5-28.5q25-5 28-1t-4 27q-18 69-76 127-59 59-125 76-23 6-27 2t1-28q6-30 28.5-68t44.5-60z"/><glyph glyph-name="glyph5" unicode="✉" horiz-adv-x="930" d="M17 626q2 14 26 14h846q38 0 20-32-8-15-24-22-8-4-96.5-51t-181-97-96.5-52q-16-10-46-10-29 0-46 10-4 2-96.5 52t-181 97-96.5 51q-32 18-28 40zm878-140q20 11 20-10v-368q0-16-17-32t-33-16h-800q-16 0-33 16t-17 32v368q0 21 20 10l384-200q17-10 46-10t46 10l384 200z"/><glyph glyph-name="glyph6" unicode="♥" horiz-adv-x="890" d="M805 644q70-64 70-156t-70-158l-360-330-360 330q-70 66-70 158t70 156q61 58 151 58 89 0 153-58l56-52 58 52q61 58 150 58 88 0 152-58z"/><glyph glyph-name="glyph7" unicode="♡" horiz-adv-x="890" d="M875 486q0-92-70-156l-360-330-360 330q-70 64-70 156t70 156q64 58 152 58 89 0 150-58l58-52 56 52q64 58 152 58t152-58q70-64 70-156zm-124-104q42 40 42 104 0 65-38 100-38 38-102 38-51 0-104-48l-104-92-106 92q-48 48-102 48-64 0-103-37t-39-101q0-66 44-104l306-286 306 286z"/><glyph glyph-name="glyph8" unicode="★" horiz-adv-x="910" d="M455 790l120-336h320l-262-196 94-348-272 208-272-208 94 348-262 196h320l120 336z"/><glyph glyph-name="glyph9" unicode="☆" horiz-adv-x="910" d="M633 258l94-348-272 208-272-208 94 348-262 196h320l120 336 120-336h320zm-178-42l150-124-62 178 144 114-176-4-56 202-54-202-176 4 142-114-62-178 150 124z"/><glyph glyph-name="glyph10" unicode="👤" horiz-adv-x="970" d="M751 128q204-72 204-122v-106h-940v106q0 50 204 122 93 34 128 69 34 34 34 95 0 23-22 49-21 26-32 73-3 21-23 26-18 5-23 60 0 32 14 38l4 4q-7 46-12 88-4 53 41 112 45 58 157 58t158-58 40-112l-12-88q18-8 18-42-5-55-23-60-20-5-23-26-7-47-31-74-23-26-23-48 0-60 35-95 34-34 127-69z"/><glyph glyph-name="glyph11" unicode="👥" d="M791-90v150q0 54-30 81-32 29-154 89 40 30 40 84 0 17-13 33t-19 51q-2 8-14 16-13 8-14 42 0 24 12 30-10 40-8 73.5t23 64.5q27 40 95 40t96-40q29-40 24-78l-8-60q12-6 12-30-1-34-14-42-12-8-14-16-6-35-19-51t-13-33q0-42 21-66t77-48q113-47 130-80 6-7 9-61 4-71 5-101v-48h-224zm-264 262q182-78 182-124v-138h-694v184q0 44 84 78 73 30 104 64 28 31 28 88 0 21-19 44t-25 68q-1 10-18 22-15 11-20 56 0 26 10 36l4 2q-2 18-5.5 46l-4.5 36q-5 50 33 103t127 53 127-53 33-103l-10-82q14-8 14-38-5-45-20-56-17-12-18-22-6-45-25-68t-19-44q0-57 28-88 31-34 104-64z"/><glyph glyph-name="glyph12" unicode="" d="M815 6v-106h-800v202q41 16 82 26 95 34 129 69 35 35 35 95 0 22-23 48-24 27-31 74-1 11-23 25-21 13-25 61 0 32 14 38l4 4q-1 6-3 19-13 53-8 95.5t39 85.5q46 58 160 58t160-58 42-112l-14-88q18-8 18-42-5-55-23-60-20-5-23-26-10-46-33-73-23-28-23-49 0-60 36-95t130-69q180-65 180-122zm50 394h150v-100h-150v-150h-100v150h-150v100h150v150h100v-150z"/><glyph glyph-name="glyph13" unicode="🎬" horiz-adv-x="1010" d="M955 700q17 0 28.5-11.5t11.5-28.5v-60h-100v-100h100v-100h-100v-100h100v-100h-100v-100h100v-60q0-16-12-28t-28-12h-900q-16 0-28 12t-12 28v60h100v100h-100v100h100v100h-100v100h100v100h-100v60q0 17 11.5 28.5t28.5 11.5h900zm-560-500l250 150-250 150v-300z"/><glyph glyph-name="glyph14" unicode="🌄" d="M253 518q-52 0-90-39t-38-91v-160l-108 296q-11 38 22 52l680 248q36 11 50-24l102-282h-100l-124 150-214-150h-180zm724-90q16 0 27-12t11-28v-472q0-16-11-28t-27-12h-724q-16 0-27 12t-11 28v472q0 16 11 28t27 12h724zm-56-452v162l-72 160-166-60-130-132-138 170-92-214v-86h598z"/><glyph glyph-name="glyph15" unicode="📷" d="M515 450q63 0 106.5-44t43.5-106-44.5-106-105.5-44-105.5 44-44.5 106 44.5 106 105.5 44zm400 150q42 0 71-29t29-71v-450q0-41-29.5-70.5t-70.5-29.5h-800q-40 0-70 30t-30 70v450q0 41 29.5 70.5t70.5 29.5h120q28 0 40 30l30 92q10 28 40 28h340q30 0 40-28l30-92q12-30 40-30h120zm-223-477q73 73 73 177t-73 177-177 73-177-73-73-177 73-177 177-73 177 73zm189 307q14 0 24 11t10 25-10 24-24 10q-36 0-36-34 0-15 10.5-25.5t25.5-10.5z"/><glyph glyph-name="glyph16" unicode="⚏" horiz-adv-x="630" d="M265 570v-90q0-80-80-80h-90q-80 0-80 80v90q0 80 80 80h90q80 0 80-80zm350 0v-90q0-80-80-80h-90q-80 0-80 80v90q0 80 80 80h90q80 0 80-80zm-350-350v-90q0-80-80-80h-90q-80 0-80 80v90q0 80 80 80h90q80 0 80-80zm270 80q80 0 80-80v-90q0-80-80-80h-90q-80 0-80 80v90q0 80 80 80h90z"/><glyph glyph-name="glyph17" unicode="☰" horiz-adv-x="730" d="M665 400q21 0 35.5-15t14.5-35-15.5-35-34.5-15h-600q-19 0-34.5 15t-15.5 35 14.5 35 35.5 15h600zm-600 100q-19 0-34.5 15t-15.5 35 14.5 35 35.5 15h600q21 0 35.5-15t14.5-35-15.5-35-34.5-15h-600zm600-300q21 0 35.5-15t14.5-35-15.5-35-34.5-15h-600q-19 0-34.5 15t-15.5 35 14.5 35 35.5 15h600z"/><glyph glyph-name="glyph18" unicode="✓" horiz-adv-x="697" d="M264 0q-34 0-56 28l-180 236q-25 39-2 78.5t67 33.5q29-5 47-28l118-154 296 474q15 23 41 30t55-8q23-15 30-41t-8-55l-350-560q-20-32-56-32l-2-2z"/><glyph glyph-name="glyph19" unicode="✕" horiz-adv-x="500" d="M467 194q18-18 18-43t-17.5-42-43.5-17-43 16l-132 152-132-152q-17-16-43-16t-43 16q-16 17-16 43t16 43l138 156-138 158q-16 17-16 43t16 43q17 16 43 16t43-16l132-152 132 152q17 16 43 16t43.5-17 17.5-42-18-43l-138-158 138-156z"/><glyph glyph-name="glyph20" unicode="✖" horiz-adv-x="870" d="M732 647q123-123 123-297t-123-297-297-123-297 123-123 297 123 297 297 123 297-123zm-211-297l154 154-86 86-154-152-152 152-88-86 154-154-154-152 88-86 152 152 154-152 86 86-154 152z"/><glyph glyph-name="glyph21" unicode="❎" horiz-adv-x="830" d="M715 750q42 0 71-29t29-71v-600q0-41-29.5-70.5t-70.5-29.5h-600q-40 0-70 30t-30 70v600q0 41 29.5 70.5t70.5 29.5h600zm-146-638l86 86-154 152 154 154-86 86-154-152-152 152-88-86 154-154-154-152 88-86 152 152 154-152z"/><glyph glyph-name="glyph23" unicode="➕" horiz-adv-x="870" d="M732 647q123-123 123-297t-123-297-297-123-297 123-123 297 123 297 297 123 297-123zm-245-347h200v102h-200v202h-102v-202h-202v-102h202v-202h102v202z"/><glyph glyph-name="glyph24" unicode="⊞" horiz-adv-x="830" d="M715 750q42 0 71-29t29-71v-600q0-41-29.5-70.5t-70.5-29.5h-600q-40 0-70 30t-30 70v600q0 41 29.5 70.5t70.5 29.5h600zm-50-450v100h-200v200h-100v-200h-200v-100h200v-200h100v200h200z"/><glyph glyph-name="glyph26" unicode="➖" horiz-adv-x="870" d="M732 647q123-123 123-297t-123-297-297-123-297 123-123 297 123 297 297 123 297-123zm-45-245h-504v-102h504v102z"/><glyph glyph-name="glyph27" unicode="⊟" horiz-adv-x="830" d="M715 750q42 0 71-29t29-71v-600q0-41-29.5-70.5t-70.5-29.5h-600q-40 0-70 30t-30 70v600q0 41 29.5 70.5t70.5 29.5h600zm-50-450v100h-500v-100h500z"/><glyph glyph-name="glyph28" unicode="❓" horiz-adv-x="610" d="M15 526q5 129 77 201.5t203 72.5q130 0 214-60 86-62 86-184 0-64-42-124-13-21-88-80l-46-30q-41-34-48-60-7-18-8-44 0-14-16-14h-128q-16 0-16 12 5 99 28 124 26 36 104 90l24 14q22 16 34 34 28 43 28 70 0 40-26 78-29 36-92 36-68 0-94-44-28-41-28-92h-166zm278-422q44 0 73-30t27-74q-2-45-31.5-72.5t-74.5-25.5q-45 0-73.5 29.5t-26.5 74.5 31.5 72.5 74.5 25.5z"/><glyph glyph-name="glyph29" unicode="" horiz-adv-x="950" d="M795 680q135-131 140-322 2-192-131-327-134-137-323-141-192-2-327 131-138 134-139 323-4 190 130 327 134 138 324 139t326-130zm-328-610q29 0 48.5 19t19.5 47q2 30-17 49t-49 19h-2q-28 0-47-18t-21-46q0-29 19-48.5t47-21.5h2zm166 328q26 35 26 78 0 76-52 115t-136 39-128.5-44.5-47.5-127.5v-4h110v4q0 26 16 54 17 24 54 24 40 0 52-20 16-19 16-44 0-15-9.5-30t-19-23-27-20.5-22.5-16.5q-26-20-38-34-13-20-18-78v-8h108v4q0 40 32 64l28 18q46 34 56 50z"/><glyph glyph-name="glyph30" unicode="ℹ" horiz-adv-x="490" d="M367 850q46 0 73-26t27-70q0-51-40-88.5t-94-37.5q-47 0-73.5 25.5t-24.5 72.5q0 45 35 85 34 39 97 39zm-206-1000q-100 0-54 178l60 254q14 56 0 56-12 0-54-18-40-17-72-38l-26 44q90 78 189 126t151 48q78 0 36-162l-70-266q-16-64 6-64 45 0 118 60l30-40q-84-86-175-132t-139-46z"/><glyph glyph-name="glyph31" unicode="" horiz-adv-x="950" d="M795 680q135-131 140-322 2-192-131-327-134-137-323-141-192-2-327 131-138 134-139 323-4 190 130 327 134 138 324 139t326-130zm-298-156q36 0 60 21.5t24 54.5q0 58-60 58-43 0-65-24-23-25-23-50-2-29 15.5-44.5t48.5-15.5zm-96-460q29 0 84 26 53 25 106 78l-18 24q-48-36-72-36-15 0-4 38l42 160q25 96-22 96-29 0-89-29-61-30-115-75l16-26q52 34 74 34 12 0 0-34l-36-152q-26-104 34-104z"/><glyph glyph-name="glyph32" unicode="🔙" horiz-adv-x="880" d="M765 540q41 0 70.5-29.5t29.5-70.5v-290q0-40-30-70t-70-30h-690v140h650v210h-500v-110l-210 180 210 180v-110h540z"/><glyph glyph-name="glyph33" unicode="⌂" horiz-adv-x="930" d="M903 336q15-15 11-26.5t-27-11.5h-84v-310q0-22-6-31t-26-9h-204v310h-204v-310h-194q-25 0-33.5 8t-8.5 32v310h-84q-23 0-27 11.5t11 26.5l400 402q16 16 38 16t38-16l400-402z"/><glyph glyph-name="glyph34" unicode="🔗" horiz-adv-x="830" d="M115 138q0-37 26.5-62.5t62.5-25.5q37 0 63 26l42 40q14 14 34 14 19 0 36-14 31-34 0-70l-42-40q-56-56-132-56-78 0-134 56t-56 132q0 78 56 134l148 148q40 39 85 60.5t95.5 17 91.5-43.5q16-16 16-36t-16-36q-36-31-70 0-50 48-132-34l-148-146q-26-26-26-64zm644 552q56-56 56-132 0-78-56-134l-158-158q-73-72-150-72-62 0-112 50-14 14-14 34 0 21 14 35.5t35 14.5 35-14q50-48 122 24l158 156q28 28 28 64 0 38-28 62-25 26-55.5 30.5t-60.5-20.5l-50-50q-17-14-36-14-20 0-34 14-34 34 0 70l50 50q58 55 130 50.5t126-60.5z"/><glyph glyph-name="glyph35" unicode="📎" horiz-adv-x="969" d="M259-140q-103 0-170 72-73 71-74 166-1 96 84 190l496 496q79 80 174 54 43-12 78.5-47t47.5-79q26-96-54-176l-474-474q-40-40-88-46-48-4-80 28-30 24-27 74t47 92l332 334q24 26 50 0t0-50l-332-332q-44-44-20-70 30-20 70 20l474 474q50 50 34 108-16 60-76 76-54 14-108-36l-494-494q-65-76-64-143 1-66 52-117 62-55 127.5-50t130.5 62l496 494q24 24 50 0 25-22 0-48l-496-496q-82-82-186-82z"/><glyph glyph-name="glyph36" unicode="🔒" horiz-adv-x="730" d="M655 476q20 0 40-19.5t20-40.5v-390q0-48-48-66l-60-18q-41-16-96-16h-290q-57 0-98 16l-60 18q-48 18-48 66v390q0 22 15 41t35 19h100v70q0 108 50.5 169t149.5 61 149.5-61 50.5-169v-70h90zm-390 90v-90h200v90q0 50-26.5 80t-73.5 30-73.5-30-26.5-80z"/><glyph glyph-name="glyph37" unicode="🔓" horiz-adv-x="730" d="M655 450q19 0 39.5-20t20.5-40v-390q0-21-14.5-40t-33.5-24l-60-20q-51-16-96-16h-290q-47 0-98 16l-60 20q-19 5-33.5 24t-14.5 40v390q0 22 15 41t35 19h400v140q0 110-100 110t-100-110v-40h-100v20q0 108 50.5 169t149.5 61q200 0 200-230v-120h90z"/><glyph glyph-name="glyph38" unicode="" d="M515 630q88 0 174.5-24.5t143.5-62.5q116-78 162-148 20-32 20-45t-20-44q-49-74-162-149-57-38-143.5-62.5t-174.5-24.5-174.5 24.5-143.5 62.5q-111 72-162 149-20 31-20 44t20 45q48 74 162 148 57 38 143.5 62.5t174.5 24.5zm157-431q65 63 65 151 0 90-65 153-64 63-157 63t-157-63q-65-63-65-153 0-88 65-151 64-63 157-63t157 63zm-157 151q8-8 37-2 11 2 28 6t22 5q21 4 25-9 0-44-33.5-75t-78.5-31-77.5 31-32.5 75q0 46 32 77t78 31q5 0 7.5-3t3-9 0-11.5-3-14-3.5-13-3-11.5l-3-8q-8-25 2-38z"/><glyph glyph-name="glyph39" unicode="" horiz-adv-x="990" d="M951 631q-43-92-128-157l18-24q17-28 6-54l-48-158q-12-29-36-46l-464-328q-42-30-64 4l-210 304q-12 20-8.5 40.5t20.5 31.5l464 328q25 18 54 18h158q30 0 48-26l28-40q168 130 114 286-10 28 18 40 32 8 38-20 36-106-8-199zm-208-269q40 31 34 80l-32-16q-7-4-12-4-17 0-28 18-12 30 16 40l24 14q-48 35-92 0-27-17-33.5-49t13.5-63q17-24 49-31t61 11z"/><glyph glyph-name="glyph40" unicode="🔖" horiz-adv-x="390" d="M325 800q21 0 35.5-15t14.5-35v-850l-180 180-180-180v850q0 50 40 50h270z"/><glyph glyph-name="glyph41" unicode="📑" horiz-adv-x="580" d="M515 850q19 0 34.5-15t15.5-35v-850l-150 180v620q0 20-15.5 35t-34.5 15h-100q0 50 40 50h210zm-250-150q19 0 34.5-15t15.5-35v-800l-150 180-150-180v800q0 50 40 50h210z"/><glyph glyph-name="glyph42" unicode="⚑" horiz-adv-x="930" d="M889 616q13 6 22-.5t0-19.5q-94-136-164-213-67-75-110-90-42-15-73-2-33 14-60 37t-63 40q-33 16-93-4-59-20-139-86l90-352h-100l-184 720 92 34q91 67 152 86 62 20 98 3 35-16 64-51t62-71 79-62q43-25 129-20 84 5 198 51z"/><glyph glyph-name="glyph43" unicode="👍" horiz-adv-x="830" d="M655 467q55-7 108-24 52-16 52-47 0-74-61-284-62-212-107-212-144 0-288 42t-144 88v342q0 14 15 34 21 29 99 86 30 22 108 74 52 36 104 100 13 16 31.5 39t31.5 38.5 22 26.5q31 37 41 26 48-77 29-137-20-62-59-119-40-58-40-60 1-5 58-13zm-490 9q14 0 0-14-50-50-50-104v-318q0-51 52-104 10-10-2-10-41 0-66 12t-51 41q-33 37-33 99v242q0 62 33 100 34 38 63 47 30 9 54 9z"/><glyph glyph-name="glyph44" unicode="👎" horiz-adv-x="830" d="M176 231q-56 7-108 24-53 17-53 47 0 70 62 285 61 213 106 213 146 0 288-43 144-43 144-89v-342q0-23-33-54-34-33-74-61-53-38-82-57l-33-22q-52-36-104-100-13-16-31.5-39t-31.5-38.5-22-26.5q-31-37-41-26-48 77-29 137 20 62 59 119 40 58 40 60-1 5-57 13zm489-9q-12 0 2 14 48 50 48 104v318q0 51-52 104-10 10 2 10 41 0 66-12t51-41q33-37 33-99v-242q0-94-63-129-47-27-87-27z"/><glyph glyph-name="glyph45" unicode="📥" d="M983 198q16-9 26.5-30t3.5-42l-28-154q-4-19-21.5-32.5t-40.5-13.5h-816q-23 0-40.5 13.5t-21.5 32.5l-28 154q-10 48 32 72l158 108h98l-170-130h178q7 0 12-8l40-110h300l40 110q8 8 12 8h178l-170 130h98zm-208 322l-260-244-260 244h166v256h190v-256h164z"/><glyph glyph-name="glyph46" unicode="📤" d="M515 776l260-244h-164v-256h-190v256h-166zm468-578q16-9 26.5-30t3.5-42l-28-154q-4-19-21.5-32.5t-40.5-13.5h-816q-23 0-40.5 13.5t-21.5 32.5l-28 154q-10 48 32 72l158 108h98l-170-130h178q7 0 12-8l40-110h300l40 110q8 8 12 8h178l-170 130h98l160-108z"/><glyph glyph-name="glyph47" unicode="" d="M775 494q99 0 170-68 70-67 70-166t-70-166q-71-68-170-68h-190v190h106l-176 230-174-230h104v-190h-248q-73 0-127.5 52t-54.5 124q0 74 53.5 126t128.5 52q12 0 20-2-2 16-2 38 0 108 78 184 77 76 188 76 92 0 161.5-53.5t92.5-132.5q25 4 40 4z"/><glyph glyph-name="glyph48" unicode="" horiz-adv-x="930" d="M915 10q-86 152-208 197-121 45-330 45v-218l-362 334 362 322v-192q88 0 166.5-27t132.5-70q110-88 165-199 57-117 68-164l6-28z"/><glyph glyph-name="glyph49" unicode="" d="M165 368l212-196v-138l-362 334 362 322v-134zm462 130q103 0 182-50 77-49 115-122 78-155 87-266l4-50q-85 154-168 198t-220 44v-218l-362 334 362 322v-192z"/><glyph glyph-name="glyph50" unicode="➦" horiz-adv-x="930" d="M555 252q-211 0-332-45-122-45-208-197 9 48 20 76.5t43 93.5q40 83 96 148 56 64 156 117 101 53 225 53v192l360-322-360-334v218z"/><glyph glyph-name="glyph51" unicode="❞" horiz-adv-x="792" d="M15 530q0 61 43 105.5t103 44.5q146 0 184-146 38-140-40-302-79-168-224-204-34-8-66-8v70q111 0 182 108 54 86 26 146-17 36-62 36-60 0-103 44.5t-43 105.5zm566 150q146 0 184-146 38-140-40-302-79-168-224-204-34-8-66-8v70q111 0 182 108 54 86 26 146-17 36-62 36-60 0-103 44.5t-43 105.5 43 105.5 103 44.5z"/><glyph glyph-name="glyph52" unicode="" d="M411 604q0-18-16-30l-246-224 246-226q16-12 16-30 0-19-16-32-30-30-60 0l-320 288 320 286q30 30 60 0 16-13 16-32zm286 32l318-286-318-288q-32-30-62 0-32 32 0 62l248 226-248 224q-32 30 0 62 30 30 62 0z"/><glyph glyph-name="glyph53" unicode="" d="M15 560q0 22 14 36t36 14h288q-65-49-98-88l-10-12h-130v-450h650v56l100 82v-188q0-20-15.5-35t-34.5-15h-750q-19 0-34.5 15t-15.5 35v550zm668-152q-165 0-242-41-75-40-160-181 0 72 32 157 16 43 48 88.5t66 73.5q42 35 111 57t145 22v156l332-250-332-260v178z"/><glyph glyph-name="glyph54" unicode="✎" horiz-adv-x="810" d="M780 616q15-32 15-48v-16q-90-90-542-540l-238-52 50 240q452 450 542 540 54 12 126-60 32-32 47-64zm-541-576l24 24q-1 44-52 94-20 20-45 35-22 13-35 13l-14 2-22-24-18-80q56-31 82-82l80 18z"/><glyph glyph-name="glyph55" unicode="✒" horiz-adv-x="728" d="M75-138q-6-20-26-8-18 7-16 34 5 103 50 226-100 154-52 316 24-79 76-158 22-34 32-30 7 4 0 83-8 88-11 166-3 88 25 157 24 47 80 94 62 52 104 70-24-47-33-94-19-105 17-110 12 0 84 120 72 121 106 122 46 4 114-29t82-65q12-24 0-79t-40-83q-44-44-146-62t-114-24q-16-10 12-34 55-48 176-20-55-79-136-114-77-33-132-38-53-5-54-10-4-23 49-54 53-30 101-14-30-56-63-84-34-29-52.5-35t-77.5-11q-69-6-85-8l-70-224z"/><glyph glyph-name="glyph56" unicode="" horiz-adv-x="1010" d="M59 548q4 9 12 14 1 0 49 17 62 22 93 32 47 15 58 15h44v150h380v-150h46q12 0 57-15 30-10 92-32 48-17 49-17 18-8 12-26-4-10-20-10h-850q-26 0-22 22zm882-78q20 0 37-19.5t17-40.5v-174q0-21-17-40.5t-37-19.5h-100l44-250h-760l44 250h-98q-20 0-38 19.5t-18 40.5v174q0 21 18 40.5t38 19.5h870zm-716-444h560l-70 324h-420l-70-324z"/><glyph glyph-name="glyph57" unicode="" d="M217 50q-41 0-70.5 29.5t-29.5 70.5v302h-102l176 198 174-198h-100v-262h272l128-140h-448zm698 200h100l-174-200-176 200h102v260h-274l-128 140h450q41 0 70.5-29.5t29.5-70.5v-300z"/><glyph glyph-name="glyph58" unicode="⌨" d="M945 650q28 0 49-21t21-49v-460q0-29-20.5-49.5t-49.5-20.5h-860q-29 0-49.5 20.5t-20.5 49.5v460q0 28 21 49t49 21h860zm-380-200h100v100h-100v-100zm50-50v-100h100v100h-100zm-200 50h100v100h-100v-100zm50-50v-100h100v100h-100zm-200 50h100v100h-100v-100zm50-50v-100h100v100h-100zm-200 50h100v100h-100v-100zm50-50v-100h100v100h-100zm50-150h-100v-100h100v100zm550 0h-500v-100h500v100zm150 0h-100v-100h100v100zm-50 50v100h-100v-100h100zm50 150v100h-200v-100h200z"/><glyph glyph-name="glyph59" unicode="" horiz-adv-x="830" d="M715 700q42 0 71-29t29-71v-350q0-41-29.5-70.5t-70.5-29.5h-200v-150l-200 150h-200q-40 0-70 30t-30 70v350q0 41 29.5 70.5t70.5 29.5h600z"/><glyph glyph-name="glyph60" unicode="" d="M15 450q0 41 29.5 70.5t70.5 29.5h190v-310h350l6 2h4v-92q0-41-29.5-70.5t-70.5-29.5h-250l-150-150v150h-50q-40 0-70 30t-30 70v300zm900 350q42 0 71-29t29-71v-300q0-41-29.5-70.5t-70.5-29.5h-50v-150l-150 150h-350v400q0 41 29.5 70.5t70.5 29.5h450z"/><glyph glyph-name="glyph61" unicode="🔔" horiz-adv-x="830" d="M647 426q30-64 85-74 27-5 48-26.5t31-51.5q22-61-74-161-95-98-252-157-163-58-297-45-132 13-155 75-19 54 12 111t18 111q-56 193-47 300 9 108 113 192 26 23 29 51t27.5 37.5 47.5-10.5q22-19 56-18 132 2 198-66 64-66 160-268zm-27-319q71 53 100 91 29 39 25 50-7 22-49 33-43 11-124 1-84-11-187-48-103-38-173-87-72-51-94-84-23-35-17-53 4-12 50-22 45-10 134-4 86 6 176 38 86 31 159 85zm-221 89q23 7 38 14l2-2q14-41-17-83-32-44-89-63-96-36-152 14 78 67 218 120z"/><glyph glyph-name="glyph62" unicode="⚠" horiz-adv-x="992" d="M972-24q10-16 0-34-10-16-30-16h-892q-17 0-28.5 17t-1.5 33l446 782q8 18 30 18t30-18zm-420 150h-110v-100h110v100zm0 74v300h-110v-300h110z"/><glyph glyph-name="glyph63" unicode="💥" horiz-adv-x="931" d="M900 234q19-16 15.5-33t-27.5-23l-78-22q-23-6-39.5-27.5t-14.5-48.5l4-82q2-23-13.5-34t-38.5 0l-86 44q-25 12-49 3t-33-29l-46-88q-12-22-29-23t-33 19l-50 78q-35 48-88 20l-122-70q-21-14-32-6.5t-2 32.5l54 164q8 25-5 44.5t-35 21.5l-106 12q-25 4-29 18t15 30l86 76q20 17 20 41t-20 41l-86 76q-19 16-15.5 33t27.5 23l78 22q23 6 40.5 28t15.5 48l-6 82q0 24 14 35.5t38 .5l80-38q29-10 52-1t34 29l46 80q12 22 30 21t30-23l50-86q11-21 33-28.5t47 6.5l136 84q20 13 29.5 6.5t.5-32.5l-60-170q-11-24 2.5-42t37.5-20l114-12q26-2 29.5-16.5t-15.5-29.5l-86-76q-18-16-18-41t18-41zm-384 12h-100v-104h100v104zm0 56v260h-100v-260h100z"/><glyph glyph-name="glyph64" unicode="" d="M915 750q42 0 71-29t29-71v-600q0-41-29.5-70.5t-70.5-29.5h-800q-40 0-70 30t-30 70v600q0 41 29.5 70.5t70.5 29.5h800zm0-100h-800v-600h800v600zm-450-494h-250v90h250v-90zm0 150h-250v90h250v-90zm0 150h-250v90h250v-90zm346-230l4-70h-250q0 70 6 70 84 22 84 66 0 16-27 56t-27 88q0 110 90 110t90-110q0-48-28-88t-28-56q0-20 20.5-35.5t43.5-22.5l22-8z"/><glyph glyph-name="glyph65" unicode="" d="M461 780v-860q0-20-20-20h-46q-20 0-20 20v440h-176q-16 0-28 6-13 2-26 12l-120 82q-10 6-10 16t10 16l120 82q13 10 26 12 7 4 28 4h176v190q0 20 20 20h46q20 0 20-20zm544-188q10-6 10-16t-10-16l-118-82q-23-12-26-12-13-6-28-6h-302l-40 230h342q22 0 54-16l118-82z"/><glyph glyph-name="glyph66" unicode="" horiz-adv-x="530" d="M442 677q73-73 73-177 0-105-62-243-63-139-126-223l-62-84q-35 41-83 116.5t-80 137.5q-87 169-87 296 0 104 73 177t177 73 177-73zm-177-315q55 0 95.5 40t40.5 96q0 55-40 94.5t-96 39.5q-55 0-94.5-39t-39.5-95 39.5-96 94.5-40z"/><glyph glyph-name="glyph67" unicode="" d="M1015-14q0-14-9-25t-23-11q-7 0-18 6l-216 136-216-136q-18-10-34 0l-218 136-216-136q-16-10-34 0-16 10-16 30v584q0 20 16 30l234 146q18 10 34 0l216-136 218 136q16 10 32 0l234-146q16-10 16-30v-584zm-766 164v506l-168-104v-506zm234-104v506l-168 104v-506zm234 104v506l-170-104v-506zm232-104v506l-168 104v-506l168-104z"/><glyph glyph-name="glyph68" unicode="➢" horiz-adv-x="890" d="M863 768q17-17 9-38-7-20-29-65t-24-49q-71-147-304-578l-66-118-54 380-380 56q449 250 696 368 8 4 33 17.5t44.5 23 34.5 13.5q23 7 40-10zm-92-96l-304-280 28-234 276 514z"/><glyph glyph-name="glyph69" unicode="" horiz-adv-x="990" d="M829 694q141-137 146-336 2-200-136-342-137-141-338-146-200-2-341 137-144 140-145 337-5 200 135 342t339 144q198 2 340-136zm-62-608q109 112 108 270-1 157-115 267-111 109-269 107-157-2-267-114-109-111-107-270 1-158 114-267 111-109 270-107 157 2 266 114zm-500 40q9 58 18.5 93t34.5 101q33 88 77 132 45 45 125 76 81 32 141 42l60 10q-9-58-18.5-93t-34.5-101q-33-88-77-132-43-43-124-74-83-32-142-42zm180 276q-22-19-22-48 0-27 21.5-49.5t49.5-22.5q30 0 49 22 52 52 88 186-137-36-186-88z"/><glyph glyph-name="glyph70" unicode="☕" horiz-adv-x="711" d="M604 719q49-20 71.5-42t19.5-45l-72-594q-1-13-34-36-36-25-104-43.5t-130-18.5-128 18.5-105 43.5q-34 23-35 36l-72 594q-5 28 36 57 46 33 129.5 52t174.5 19q150 0 249-41zm-249-175q62 0 129.5 14t105.5 34q33 18 33 30t-33 29q-39 20-106 33.5t-129 13.5-129-13.5-106-33.5q-33-17-33-29t33-30q38-20 105.5-34t129.5-14z"/><glyph glyph-name="glyph71" unicode="" horiz-adv-x="790" d="M65 458q121-70 330-70t330 70l-54-486q-1-13-35-36-32-22-100-43t-141-21q-64 0-132.5 19t-107.5 45q-35 22-36 36zm488 300q94-18 158-55t64-71v-10q0-59-112-99-114-41-268-41t-268 41q-112 40-112 99v10q0 34 64 71t158 55l42 48q23 26 70 26h92q52 0 70-26zm-54-112h84q-95 114-104 126-13 16-32 16h-102q-22 0-32-16l-106-126h84l64 66h82l62-66z"/><glyph glyph-name="glyph72" unicode="" horiz-adv-x="730" d="M615 800q42 0 71-29t29-71v-700q0-41-29.5-70.5t-70.5-29.5h-500q-40 0-70 30t-30 70v700q0 41 29.5 70.5t70.5 29.5h500zm0-800v700h-500v-700h500z"/><glyph glyph-name="glyph73" unicode="" horiz-adv-x="1031" d="M985 480q37-10 30-46l-150-556q-4-15-17.5-22.5t-30.5-3.5l-406 110q-14 3-23 16.5t-5 29.5l24 92-180-48q-39-10-50 26l-160 602q-10 36 28 48l454 122q17 4 30.5-3.5t17.5-22.5l66-244zm-888 190l144-542 392 106-144 540zm702-742l132 492-298 82 76-282q10-34-28-46l-196-52-26-102 340-92z"/><glyph glyph-name="glyph74" unicode="" d="M15 600q0 41 29.5 70.5t70.5 29.5h800q42 0 71-29t29-71v-500q0-41-29.5-70.5t-70.5-29.5h-800q-40 0-70 30t-30 70v500zm900 0h-800v-500h800v500z"/><glyph glyph-name="glyph75" unicode="📄" horiz-adv-x="730" d="M227 398h280v-90h-280v90zm388 402q42 0 71-29t29-71v-700q0-41-29.5-70.5t-70.5-29.5h-500q-40 0-70 30t-30 70v700q0 41 29.5 70.5t70.5 29.5h500zm0-100h-500v-700h500v700zm-110-196h-280v88h280v-88zm0-304v-88h-280v88h280z"/><glyph glyph-name="glyph76" unicode="" horiz-adv-x="730" d="M615 800q42 0 71-29t29-71v-700q0-41-29.5-70.5t-70.5-29.5h-500q-40 0-70 30t-30 70v700q0 41 29.5 70.5t70.5 29.5h500zm-460-296h420v88h-420v-88zm420-304h-420v-88h420v88zm0 108v90h-418v-90h418z"/><glyph glyph-name="glyph77" unicode="📰" horiz-adv-x="830" d="M715 800q42 0 71-29t29-71v-700q0-41-29.5-70.5t-70.5-29.5h-600q-40 0-70 30t-30 70v700q0 41 29.5 70.5t70.5 29.5h600zm0-100h-600v-700h600v700zm-250-500h-250v50h250v-50zm150 200h-200v50h200v-50zm-200 200h200v-100h-200v100zm-50-200h-150v200h150v-200zm-50-100h-100v50h100v-50zm50 50h250v-50h-250v50zm250-250h-400v50h400v-50zm-100 100v50h100v-50h-100z"/><glyph glyph-name="glyph78" unicode="📖" horiz-adv-x="930" d="M355 238v-68l-200 80v68zm0 208v-68l-200 80v68zm110-546q-1 0-5 1t-5 1l-10 2-398 160q-32 12-32 46v640q0 30 22 42 22 16 46 6l382-154 382 154q24 10 46-6 22-12 22-42v-640q0-34-32-46l-398-160q-2 0-5-1-4-1-5-1t-5-1-5-1zm-50 104v560l-320 128v-560zm420 128v560l-320-128v-560zm-60 186v-68l-200-80v68zm0 208v-68l-200-80v68l200 80z"/><glyph glyph-name="glyph79" unicode="📕" horiz-adv-x="730" d="M697 594q18-8 18-28v-562q0-14-12.5-25t-27.5-11q-46 0-46 36v522q0 12-12 18l-404 216q-31 10-68-10-44-20-56-44l408-228q18-8 18-28v-550q0-22-18-28-5-4-16-4-15 0-20 4-13 9-208.5 130.5t-205.5 127.5q-26 18-26 34l-6 524q0 27 14 52 28 45 102 77t116 9l450-232z"/><glyph glyph-name="glyph80" unicode="📁" horiz-adv-x="1031" d="M969 500q29 0 38.5-10.5t7.5-37.5l-42-452q-2-27-13.5-38.5t-40.5-11.5h-806q-51 0-56 50l-42 452q-2 27 7.5 37.5t38.5 10.5h908zm-34 110l10-40h-846l14 132q4 19 20 33.5t36 14.5h164q52 0 86-34l30-30q31-36 86-36h340q20 0 38-12t22-28z"/><glyph glyph-name="glyph81" unicode="" horiz-adv-x="1011" d="M159 600q0 18 11.5 33t26.5 17h608q20 0 36-15 14-14 14-35v-50h-696v50zm100 100q0 18 11.5 33t26.5 17h410q20 0 36-15 14-14 14-35h-498zm696-150q33-30 38-46 6-18 0-54l-76-450q-3-18-17.5-32.5t-30.5-17.5h-710q-52 0-60 50 0 1-39 225t-39 225q-10 22-3 44t10 26q1 2 21 20l40 40v-80h836v80zm-248-270v100h-70v-80h-260v80h-68v-100q0-50 48-50h300q18 0 33 10.5t15 25.5l2 14z"/><glyph glyph-name="glyph82" unicode="📦" horiz-adv-x="930" d="M885 750q12 0 21-9t9-21v-120h-900v120q0 12 9 21t21 9h840zm-750-800q-29 0-49.5 20.5t-20.5 49.5v530h800v-530q0-29-20.5-49.5t-49.5-20.5h-660zm180 500v-100h300v100h-300z"/><glyph glyph-name="glyph83" unicode="" horiz-adv-x="790" d="M552 507q223-223 223-537h-118q0 265-188 453-187 187-454 187v120q314 0 537-223zm-166-168q153-153 153-369h-118q0 166-119 285t-287 119v118q218 0 371-153zm-257-143q47 0 80.5-34t33.5-80-34-79-80-33-80 33-34 79 33.5 80 80.5 34z"/><glyph glyph-name="glyph84" unicode="📞" horiz-adv-x="830" d="M476 290q162 162 118 206l-8 8q-31 31-41 48-11 19-4 54 8 36 49 88 17 21 37 39 19 17 65 17 12 0 53-31l47-47q48-48-6-194t-204-294q-150-150-295-205t-193-7l-24 24-24 23q-4 5-18 24-11 16-12.5 27.5t1.5 33.5q2 19 15 35 16 20 51.5 47t56.5 37q27 13 54 2 26-11 35-18 12-10 39-37 44-44 208 120z"/><glyph glyph-name="glyph85" unicode="⚙" horiz-adv-x="870" d="M855 228q-12-41-34-82-70 18-136-44-54-58-34-136-41-20-84-36-46 82-132 82t-132-82q-43 16-84 36 20 81-34 136-53 54-136 34-15 29-34 82 82 52 82 132 0 72-82 124 19 53 34 82 74-18 136 44 54 55 34 136 40 21 84 34 47-80 132-80t132 80q44-13 84-34-20-78 34-136 66-62 136-44 22-41 34-82-80-50-80-124 0-72 80-122zm-420-60q76 0 129 53t53 129q0 75-53.5 129.5t-128.5 54.5-128.5-54.5-53.5-129.5q0-76 53-129t129-53z"/><glyph glyph-name="glyph86" unicode="⚒" d="M170 506q-14-14-14-47 0-11-2-11-1-1-18-16t-18-16q-16-13-28 4l-70 76q-3 4-4 8t-.5 7 4 6.5 6 5.5 7.5 5.5 7 5.5q15 11 20 16 6 6 27 6 22 0 36.5 14.5t18.5 37.5q5 25 10 30 2 0 9 7 18 18 67 53 134 90 186 96 114 0 148-2 13 0-8-8-123-54-152-76-80-56-36-114 35-47 38-48 8-8-2-14-8-8-38-35t-38-35q-14-8-18-4-42 48-71 60t-67-12zm696-502q17-22-2-38l-48-42q-22-13-38 4l-414 472q-8 8 0 20l72 62q13 8 20-2zm128 512q-49-88-154-62-56 12-100-32l-82-78-68 78 68 70q40 40 37 118-1 34 5 58 12 56 140 112 12 6 18-3t2-15q-10-10-46-80-13-10-12-35 1-24 40-53 58-40 96 22 2 4 24.5 38t23.5 36q4 10 13 9 10-2 11-17 16-103-16-166zm-842-518l254 248 76-86-246-242q-20-20-38-4l-46 46q-23 18 0 38z"/><glyph glyph-name="glyph87" unicode="" horiz-adv-x="830" d="M665 200q62 0 106-43.5t44-106.5q0-62-44.5-106t-105.5-44-105.5 44-44.5 106q0 3 1 13t1 13l-260 156q-43-32-92-32-61 0-105.5 44t-44.5 106 44.5 106 105.5 44q55 0 92-30l260 156q0 2-1 12t-1 12q0 62 44.5 106t105.5 44q62 0 106-43.5t44-106.5q0-62-44.5-106t-105.5-44q-52 0-90 32l-262-156q2-10 2-26 0-14-2-24l262-156q36 30 90 30z"/><glyph glyph-name="glyph88" unicode="" d="M355 350q0 67 47 113.5t113 46.5 113-46.5 47-113.5q0-65-47.5-112.5t-112.5-47.5-112.5 47.5-47.5 112.5zm-180 0h-160v120h118q40 124 145 202t237 78q163 0 284-116 16-17 16-43t-16-43q-17-16-43-16t-43 16q-78 82-198 82-102 0-177.5-64t-96.5-156q-13-60-66-60zm680 0h160v-120h-118q-39-120-141.5-200t-240.5-80q-164 0-282 118-18 18-18 43t18 41q17 18 41 18 25 0 43-18 82-82 198-82 101 0 177 64t97 156q12 60 66 60z"/><glyph glyph-name="glyph89" unicode="" horiz-adv-x="930" d="M165 0q0 40 30 70t70 30q41 0 70.5-29.5t29.5-70.5q0-42-29-71t-71-29q-41 0-70.5 29.5t-29.5 70.5zm500 0q0 40 30 70t70 30q41 0 70.5-29.5t29.5-70.5q0-42-29-71t-71-29q-41 0-70.5 29.5t-29.5 70.5zm-322 236q-18-5-26.5-10.5t-7.5-12.5q1-13 44-13h562v-76q0-20-20-20h-654q-20 0-20 20v76q-18 84-54 250t-54 250h-98v80q0 20 20 20h156q20 0 20-20v-86h704v-274q0-22-18-26l-554-158z"/><glyph glyph-name="glyph90" unicode="👜" horiz-adv-x="889" d="M874 608l-98-648q-8-30-38-30h-586q-28 0-40 30-94 620-96 648-4 34 22 60l55 43 55 43q17 16 56 16h480q39 0 56-16 87-66 110-86 28-26 24-60zm-430-376q58 0 99.5 35t61.5 88q35 93 43 155h-92q-38-188-112-188t-112 188h-92q47-278 204-278zm-352 368h704l-110 116h-484l-110-116z"/><glyph glyph-name="glyph91" unicode="📅" horiz-adv-x="930" d="M815 700q42 0 71-29t29-71v-600q0-41-29.5-70.5t-70.5-29.5h-700q-40 0-70 30t-30 70v600q0 41 29.5 70.5t70.5 29.5h46v-100h160v100h290v-100h160v100h44zm0-300h-700v-400h700v400zm-540 230h-70v170h70v-170zm450 170v-170h-70v170h70z"/><glyph glyph-name="glyph92" unicode="" horiz-adv-x="930" d="M815 800q42 0 71-29t29-71v-700q0-41-29.5-70.5t-70.5-29.5h-450q-40 0-69 30t-29 70v100h98v-100h450v700h-450v-150h-98v150q0 41 29 70.5t69 29.5h450zm-350-670v120h-450v150h450v120l200-194-200-196z"/><glyph glyph-name="glyph93" unicode="" horiz-adv-x="930" d="M515 800q42 0 71-29t29-71v-150h-98v150h-402v-700h402v100h98v-100q0-41-29.5-70.5t-70.5-29.5h-400q-40 0-70 30t-30 70v700q0 41 29.5 70.5t70.5 29.5h400zm400-474l-198-196v120h-450v150h450v120l198-194z"/><glyph glyph-name="glyph94" unicode="🎤" horiz-adv-x="670" d="M655 468v-138q0-92-69-164t-201-84v-132h130q20 0 20-20v-60q0-20-20-20h-360q-20 0-20 20v60q0 20 20 20h130v132q-132 12-201 84t-69 164v138q0 20 20 20h30q20 0 20-20v-138q0-66 59-123 58-57 191-57t191 57q59 57 59 123v138q0 20 20 20h30q20 0 20-20zm-435-193q-35 26-35 55v158h300v-158q0-29-35-55-34-25-115-25t-115 25zm265 495v-212h-300v212q0 29 35 55 34 25 115 25t115-25q35-26 35-55z"/><glyph glyph-name="glyph95" unicode="🔇" horiz-adv-x="914" d="M67-90q-20 0-36 15t-16 35q0 23 16 36l782 782q34 31 70 0 16-16 16-36t-16-36l-782-782q-19-14-34-14zm650 532q74-92 101-172t-7-116q-24-24-75-57-53-34-131-71-166-79-326-22l278 276q41-30 88-54 42-22 67-25 23-3 33 1 6 11 2 34-5 28-26 68-24 47-54 88zm-326 12l-270-270q-40 130 28 283 67 150 132 215 35 32 105 11 72-21 159-85l-52-50q-60 39-105 53-47 15-57 5-4-6-2-28 1-18 19-58 16-36 43-76z"/><glyph glyph-name="glyph96" unicode="🔊" horiz-adv-x="940" d="M340 583q106-47 217-157t157-217q47-107 5-149-29-29-92-67-65-39-156-78-93-39-194-29-103 11-176 84t-84 176q-10 101 29 194 39 92 78 156 38 63 67 92 42 42 149-5zm312-426q-10 37-49 101t-96 118q-54 57-118 96t-101 49q-39 10-49 3-7-10 3-49 10-37 49-101 36-59 94-120 61-58 120-94 64-39 101-49 39-10 49-3 7 10-3 49zm9 345q-18 0-34 16t-16 35q0 22 16 35l94 96q36 32 72 0 31-36 0-72l-96-94q-16-16-36-16zm-154 118q-29 0-44 23.5t0 50.5l54 96q26 44 68 20 17-10 22.5-28.5t-4.5-39.5l-54-96q-14-26-42-26zm412-144q10-22 3-40.5t-23-27.5l-96-54q-18-8-24-8-23 0-39.5 19t-8.5 45q6 20 24 30l96 54q21 10 39.5 4.5t28.5-22.5z"/><glyph glyph-name="glyph97" unicode="" horiz-adv-x="926" d="M911 180q0-33-24-56.5t-56-23.5h-780q-9 0-15 .5t-13 2.5-8 6 2 11q5 9 24 20l802 452q29 18 48.5 6.5t19.5-44.5v-374z"/><glyph glyph-name="glyph98" unicode="🕔" horiz-adv-x="950" d="M800 675q135-135 135-325t-135-325-325-135-325 135-135 325 135 325 325 135 325-135zm-70-579q105 106 105 254 0 150-105 255t-255 105q-147 0-254-105-106-105-106-255 0-148 106-254t254-106q150 0 255 106zm-219 514v-244l150-150-50-50-170 170v274h70z"/><glyph glyph-name="glyph99" unicode="⏳" horiz-adv-x="590" d="M527 526q-51-56-97-99-49-46-49-77 0-30 49-76t97-97 48-97v-118q0-34-86-73-85-39-194-39t-194 39q-86 39-86 73v118q0 46 48 97t97 97 49 76q0 31-49 77-46 43-97 99-48 52-48 96v118q0 32 87 71t193 39 193-39 87-71v-118q0-44-48-96zm-452 194q-4-7 4-14 91-52 216-52 131 0 220 50 14 11-16 30-96 54-202 54-120 0-204-54zm246-370q0 38 22 66 20 26 51 56 17 16 29 28 92 92 92 122l2 50q-101-54-222-54t-222 54l4-50q0-32 90-122 3-4 22.5-22t22.5-21l19-19q2-3 5.5-7t11-13.5 11-15 .5-5.5q-6 1 2-12 17-29 15-33-1-2-5-2 0-24-7-37-18-32-19-33l-12-15-31-31-35-32q-90-90-90-122v-66q4 2 66 23 58 19 92 43t34 58q0 30 26 30t26-30q0-34 33-58 32-23 94-43 63-20 67-23v66q0 30-92 122-5 5-28 27.5t-33 32.5q-17 17-30 42-11 19-11 46z"/><glyph glyph-name="glyph100" unicode="💡" horiz-adv-x="730" d="M224-6h282v-104q-70-42-142-40-70-1-140 40v104zm6 60q0 69-34.5 136.5t-79.5 116.5q-45 47-75.5 114t-24.5 137q7 119 94 206 86 86 254 86 169 0 255-86 84-84 95-206 7-108-68-209-10-13-32.5-42t-34-45-28-42.5-27.5-51.5q-24-54-24-114h-270zm-108 496q-3-2 0-20.5t2-19.5q-1-2 5-19t6-18 2.5-7 6-12 6.5-12l4-6q1-2 13.5-19t13.5-19 15-22 16-22q88-120 112-212h82q24 94 112 212 1 1 13 18l24 34 13 19q29 46 33 62 9 37 7 63-16 196-244 196-226 0-242-196z"/><glyph glyph-name="glyph101" unicode="🔅" horiz-adv-x="730" d="M365 510q67 0 113.5-47t46.5-113q0-68-46.5-114t-113.5-46q-66 0-113 46.5t-47 113.5q0 65 47.5 112.5t112.5 47.5zm0-264q43 0 72.5 30t29.5 74q0 43-29.5 72.5t-72.5 29.5q-42 0-72-30t-30-72q0-43 29.5-73.5t72.5-30.5zm-300 144q19 0 34.5-11.5t15.5-28.5q0-40-50-40t-50 40q0 17 15.5 28.5t34.5 11.5zm538 140q-13-13-31-16t-31 10q-12 15-9.5 33t15.5 31q36 34 64 6t-8-64zm62-140q19 0 34.5-11.5t15.5-28.5q0-40-50-40-48 0-48 40 0 17 14.5 28.5t33.5 11.5zm-300-290q17 0 28.5-15.5t11.5-34.5-11.5-34.5-28.5-15.5-28.5 15.5-11.5 34.5 11.5 34.5 28.5 15.5zm-174 70q28-28-8-64-12-12-30-15.5t-32 7.5q-30 28 6 64t64 8zm-10 414q12-12 15.5-30t-7.5-32q-30-28-64 6-36 36-8 64t64-8zm362-412q28 28 64-8 13-13 16-31t-10-31q-30-28-64 6-34 36-6 64zm-178 428q-17 0-28.5 15.5t-11.5 34.5 11.5 34.5 28.5 15.5 28.5-15.5 11.5-34.5-11.5-34.5-28.5-15.5z"/><glyph glyph-name="glyph102" unicode="🔆" d="M965 390q19 0 34.5-11.5t15.5-28.5q0-40-50-40h-48q-50 0-50 40 0 17 15.5 28.5t34.5 11.5h48zm-255 154q81-80 81-194 0-116-81-196-82-80-195-80-114 0-194 80t-80 196q0 114 80 194t194 80q113 0 195-80zm-54-336q59 59 59 142 0 82-59 141t-141 59-141-59-59-141q0-83 59-142 58-58 141-58t141 58zm-541 182q19 0 34.5-11.5t15.5-28.5q0-40-50-40h-50q-50 0-50 40 0 17 15.5 28.5t34.5 11.5h50zm400 310q-17 0-28.5 15.5t-11.5 34.5v50q0 19 11.5 34.5t28.5 15.5 28.5-15.5 11.5-34.5v-50q0-19-11.5-34.5t-28.5-15.5zm0-700q17 0 28.5-15.5t11.5-34.5v-50q0-19-11.5-34.5t-28.5-15.5-28.5 15.5-11.5 34.5v50q0 19 11.5 34.5t28.5 15.5zm334 626q-34-34-64-8-28 28 8 64 6 8 34 36 36 34 64 6t-8-64zm-666-554q12 14 30 17.5t32-9.5q12-15 9.5-33t-15.5-31l-36-36q-13-13-31-16t-31 10q-30 28 6 64 8 6 36 34zm56 610q36-36 6-64-14-11-32-7.5t-30 15.5q-28 28-36 34-13 13-15.5 31t9.5 33q13 13 31 10t31-16zm554-666q-36 36-8 64t64-8l34-34q36-36 8-64t-64 6q-28 28-34 36z"/><glyph glyph-name="glyph103" unicode="◑" d="M965 390q19 0 34.5-11.5t15.5-28.5q0-40-50-40h-48q-50 0-50 40 0 17 15.5 28.5t34.5 11.5h48zm-255 154q81-80 81-194 0-116-81-196-82-80-195-80-114 0-194 80t-80 196q0 114 80 194t194 80q113 0 195-80zm-189 6q-85 0-146-59-60-59-60-141 0-84 60.5-142t145.5-58v400zm-406-160q19 0 34.5-11.5t15.5-28.5q0-40-50-40h-50q-50 0-50 40 0 17 15.5 28.5t34.5 11.5h50zm400 310q-17 0-28.5 15.5t-11.5 34.5v50q0 19 11.5 34.5t28.5 15.5 28.5-15.5 11.5-34.5v-50q0-19-11.5-34.5t-28.5-15.5zm0-700q17 0 28.5-15.5t11.5-34.5v-50q0-19-11.5-34.5t-28.5-15.5-28.5 15.5-11.5 34.5v50q0 19 11.5 34.5t28.5 15.5zm334 626q-34-34-64-8-28 28 8 64 6 8 34 36 36 34 64 6t-8-64zm-666-554q12 14 30 17.5t32-9.5q12-15 9.5-33t-15.5-31l-36-36q-13-13-31-16t-31 10q-30 28 6 64 8 6 36 34zm56 610q36-36 6-64-14-11-32-7.5t-30 15.5q-28 28-36 34-13 13-15.5 31t9.5 33q13 13 31 10t31-16zm554-666q-36 36-8 64t64-8l34-34q36-36 8-64t-64 6q-28 28-34 36z"/><glyph glyph-name="glyph104" unicode="🚫" horiz-adv-x="990" d="M835 690q140-140 140-340 0-197-140-339-139-141-340-141-198 0-339 141t-141 339q0 200 141 340 142 140 339 140 200 0 340-140zm-82-80zm-540-490l514 514q-100 82-232 82-151 0-258-107-106-106-106-259 0-133 82-230zm24-28zm258-106q152 0 259 107t107 257q0 131-82 232l-514-514q97-82 230-82z"/><glyph glyph-name="glyph105" unicode="" horiz-adv-x="822" d="M491 746h316v-316l-100 124-146-152-100 100 152 146zm-230-444l100-100-152-146 122-100h-316v316l100-122 146 152z"/><glyph glyph-name="glyph106" unicode="" horiz-adv-x="930" d="M171 146l-106 100h296v-296l-100 106-146-156-100 100zm744 554l-154-144 104-100h-294v294l100-104 144 154 100-100z"/><glyph glyph-name="glyph107" unicode="" horiz-adv-x="830" d="M715 750q42 0 71-29t29-71v-400q0-41-29.5-70.5t-70.5-29.5h-400q-40 0-70 30t-30 70v402q0 40 29.5 69t70.5 29h400zm0-100h-400v-400h400v400zm-600-300v-300h300v-100h-300q-40 0-70 30t-30 70v300h100z"/><glyph glyph-name="glyph108" unicode="" d="M915 800q41 0 70.5-29.5t29.5-70.5v-600q0-42-29-71t-71-29h-198v98h200v462h-802v-462h200v-98h-200q-41 0-70.5 29.5t-29.5 70.5v600q0 40 30 70t70 30h800zm-808-130q0-16 11-27t27-11q38 0 38 38 0 16-11 26t-27 10q-15 0-26.5-10.5t-11.5-25.5zm100 0q0-16 11-27t27-11q38 0 38 38 0 16-11 26t-27 10q-15 0-26.5-10.5t-11.5-25.5zm710 30h-602v-62h602v62zm-404-260l242-240h-150v-300h-184v300h-150l242 240z"/><glyph glyph-name="glyph109" unicode="" d="M915 750q41 0 70.5-29.5t29.5-70.5v-600q0-42-29-71t-71-29h-800q-41 0-70.5 29.5t-29.5 70.5v600q0 40 30 70t70 30h800zm-670-94q-15 0-26.5-10.5t-11.5-25.5q0-16 11-27t27-11q38 0 38 38 0 16-11 26t-27 10zm-138-36q0-16 11-27t27-11q38 0 38 38 0 16-11 26t-27 10q-15 0-26.5-10.5t-11.5-25.5zm810-110h-802v-460h802v460zm0 80v60h-602v-60h602z"/><glyph glyph-name="glyph110" unicode="" horiz-adv-x="490" d="M245 850l230-364h-460zm0-1000l-230 366h460l-230-366z"/><glyph glyph-name="glyph111" unicode="" horiz-adv-x="950" d="M800 675q135-135 135-325t-135-325-325-135-325 135-135 325 135 325 325 135 325-135zm-71-579q106 106 106 254 0 150-106 255-107 105-254 105t-254-105q-106-105-106-255 0-148 106-254t254-106 254 106zm-164 448v-206h112l-202-190-202 190h112v206h180z"/><glyph glyph-name="glyph112" unicode="" horiz-adv-x="950" d="M800 25q-135-135-325-135t-325 135-135 325q0 192 135 326 136 134 325 134t325-134q135-134 135-326 0-190-135-325zm-579 71q106-106 254-106t254 106 106 254q0 150-106 255-107 105-254 105t-254-105q-106-105-106-255 0-148 106-254zm446 164h-204v-112l-190 202 190 204v-114h204v-180z"/><glyph glyph-name="glyph113" unicode="" horiz-adv-x="950" d="M150 675q135 135 325 135t325-135 135-325-135-325-325-135-325 135-135 325 135 325zm580-70q-105 105-255 105-147 0-254-105-106-105-106-255 0-148 106-254t254-106q150 0 255 106t105 254q0 150-105 255zm-447-165h204v114l190-204-190-202v112h-204v180z"/><glyph glyph-name="glyph114" unicode="" horiz-adv-x="950" d="M150 25q-135 135-135 325 0 192 135 326 136 134 325 134t325-134q135-134 135-326 0-190-135-325t-325-135-325 135zm71 580q-106-105-106-255 0-148 106-254t254-106q150 0 255 106t105 254q0 150-105 255t-255 105q-147 0-254-105zm164-447v204h-112l202 192 202-192h-112v-204h-180z"/><glyph glyph-name="glyph115" unicode="" horiz-adv-x="610" d="M579 422l-234-224q-18-18-40-18t-40 18l-234 224q-16 16-16 41t16 41q37 38 78 0l196-188 196 188q41 38 78 0 16-16 16-41t-16-41z"/><glyph glyph-name="glyph116" unicode="" horiz-adv-x="371" d="M257 626q13 16 39 16 25 0 41-16 38-36 0-80l-186-196 186-194q38-44 0-80-16-16-40-16t-40 16l-226 236q-16 16-16 38 0 24 16 40 225 235 226 236z"/><glyph glyph-name="glyph117" unicode="" horiz-adv-x="370" d="M113 626l226-236q16-16 16-40 0-22-16-38l-226-236q-16-16-40-16t-40 16q-36 36 0 80l186 194-186 196q-36 44 0 80 16 16 41 16 26 0 39-16z"/><glyph glyph-name="glyph118" unicode="" horiz-adv-x="610" d="M579 280q16-16 16-41t-16-41q-37-38-78 0l-196 188-196-188q-41-38-78 0-16 16-16 41t16 41l234 224q16 16 40 16t40-16l234-224z"/><glyph glyph-name="glyph119" unicode="" horiz-adv-x="496" d="M420 470q22 26 48 0 26-22 0-48l-196-192q-22-22-48 0l-196 192q-26 26 0 48 24 24 50 0l170-156 172 156z"/><glyph glyph-name="glyph120" unicode="" horiz-adv-x="295" d="M267 180q25-26 0-48-25-26-48 0l-192 194q-24 24 0 50l192 194q23 26 48 0 25-22 0-48l-156-172 156-170z"/><glyph glyph-name="glyph121" unicode="" horiz-adv-x="295" d="M28 180l158 170-158 172q-26 26 0 48 26 26 48 0l192-194q24-26 0-50l-192-194q-22-26-48 0-26 22 0 48z"/><glyph glyph-name="glyph122" unicode="" horiz-adv-x="494" d="M77 230q-26-23-50 0-24 24 0 50l196 190q25 26 48 0l196-190q24-26 0-50-24-23-50 0l-170 158-170-158z"/><glyph glyph-name="glyph123" unicode="" horiz-adv-x="896" d="M78 570l370-356 372 356q22 26 48 0 26-22 0-48l-396-392q-22-22-48 0l-396 392q-26 26 0 48 24 24 50 0z"/><glyph glyph-name="glyph124" unicode="" horiz-adv-x="495" d="M467-20q25-26 0-48-25-26-48 0l-392 394q-24 24 0 50l392 394q23 26 48 0 25-22 0-48l-358-372 358-370z"/><glyph glyph-name="glyph125" unicode="" horiz-adv-x="495" d="M28-20l358 370-358 372q-26 26 0 48 26 26 48 0l392-394q24-26 0-50l-392-394q-22-26-48 0-26 22 0 48z"/><glyph glyph-name="glyph126" unicode="" horiz-adv-x="894" d="M819 130l-372 358-370-358q-26-23-50 0-24 24 0 50l396 390q25 26 48 0l396-390q24-26 0-50-25-22-48 0z"/><glyph glyph-name="glyph127" unicode="⬇" horiz-adv-x="690" d="M675 366l-330-380-330 380h192v350h276v-350h192z"/><glyph glyph-name="glyph128" unicode="⬅" horiz-adv-x="760" d="M393 20l-378 330 378 330v-190h352v-278h-352v-192z"/><glyph glyph-name="glyph129" unicode="➡" horiz-adv-x="760" d="M365 680l380-330-380-330v192h-350v278h350v190z"/><glyph glyph-name="glyph130" unicode="⬆" horiz-adv-x="690" d="M675 336h-192v-350h-276v350h-192l330 380 330-380z"/><glyph glyph-name="glyph131" unicode="▾" horiz-adv-x="490" d="M475 550l-230-400-230 400h460z"/><glyph glyph-name="glyph132" unicode="◂" horiz-adv-x="430" d="M415 580v-460l-400 230 400 230z"/><glyph glyph-name="glyph133" unicode="▸" horiz-adv-x="430" d="M15 580l400-230-400-230v460z"/><glyph glyph-name="glyph134" unicode="▴" horiz-adv-x="490" d="M15 150l230 400 230-400h-460z"/><glyph glyph-name="glyph135" unicode="" horiz-adv-x="790" d="M775 366l-380-380-380 380h192v350h376v-350h192z"/><glyph glyph-name="glyph136" unicode="" horiz-adv-x="760" d="M393 730v-190h352v-378h-352v-192l-378 380 378 380z"/><glyph glyph-name="glyph137" unicode="" horiz-adv-x="760" d="M365 730l380-380-380-380v192h-350v378h350v190z"/><glyph glyph-name="glyph138" unicode="" horiz-adv-x="790" d="M775 336h-192v-350h-376v350h-192l380 380 380-380z"/><glyph glyph-name="glyph139" unicode="↓" horiz-adv-x="530" d="M515 100l-250-240-250 240h162v740h176v-740h162z"/><glyph glyph-name="glyph140" unicode="←" horiz-adv-x="1010" d="M255 100l-240 250 240 250v-160h740v-178h-740v-162z"/><glyph glyph-name="glyph141" unicode="→" horiz-adv-x="1010" d="M757 100v162h-742v178h742v160l238-250-238-250z"/><glyph glyph-name="glyph142" unicode="↑" horiz-adv-x="530" d="M515 602h-162v-742h-176v742h-162l250 238 250-238z"/><glyph glyph-name="glyph143" unicode="⟲" horiz-adv-x="970" d="M547 736q171 0 289-120 119-121 119-290t-119-290q-118-120-289-120-143 0-252 88l70 74q84-60 182-60 126 0 216 90t90 218-90 218-216 90q-124 0-214-87-91-87-92-211h142l-184-204-184 204h124q1 166 122 283 120 117 286 117z"/><glyph glyph-name="glyph144" unicode="⟳" horiz-adv-x="970" d="M423 760q168 0 287-116 118-116 123-282h122l-184-206-184 206h144q-5 125-94 210-91 86-214 86-126 0-216-90t-90-218q0-126 90-216t216-90q104 0 182 60l70-76q-109-88-252-88-168 0-288 120t-120 290 120 290 288 120z"/><glyph glyph-name="glyph145" unicode="🔄" horiz-adv-x="850" d="M317 256v-292l-276 16 88 86q-116 122-114 290 1 168 120 288 99 99 240 116l4-102q-101-16-172-88-89-88-90-213-2-125 84-217zm216 482l276-16-88-86q116-122 114-290-1-168-120-288-97-99-240-118l-2 104q99 17 170 88 89 88 90 213 2 125-84 217l-114-116-2 292z"/><glyph glyph-name="glyph146" unicode="↳" horiz-adv-x="774" d="M115 200q-41 0-70.5 29.5t-29.5 70.5v350h140v-310h364v150l240-220-240-220v150h-404z"/><glyph glyph-name="glyph147" unicode="↰" horiz-adv-x="880" d="M215 350v-90l-200 160 200 170v-100h550q41 0 70.5-29.5t29.5-70.5v-280h-140v240h-510z"/><glyph glyph-name="glyph148" unicode="🔀" d="M769 516q-51 0-102.5-30.5t-82.5-67.5q-16-19-79-99t-79-99q-29-34-78-77-99-87-229-87h-104v140h104q51 0 103.5 31t83.5 67q18 21 90.5 113.5t93.5 116.5q40 45 116 88 77 44 163 44h36v120l210-180-210-180v100h-36zm-650-10h-104v140h104q140 0 254-108-4-5-31.5-38.5t-32.5-39.5q-9-14-24-32-73 78-166 78zm686-320v100l210-180-210-180v120h-36q-139 0-260 116 57 72 72 92 0 2 7 11l7 9q84-88 174-88h36z"/><glyph glyph-name="glyph149" unicode="🔁" horiz-adv-x="930" d="M815 540q42 0 71-29t29-71v-290q0-41-29.5-70.5t-70.5-29.5h-700q-40 0-70 30t-30 70v290q0 41 29.5 70.5t70.5 29.5h250v110l200-180-200-180v110h-210v-210h620v210h-150v140h190z"/><glyph glyph-name="glyph150" unicode="⇆" d="M715 452h-500v-90l-200 160 200 170v-100h500v-140zm300-280l-200-160v90h-500v140h500v100l200-170z"/><glyph glyph-name="glyph151" unicode="▶" horiz-adv-x="530" d="M501 376q14-11 14-26 0-13-14-24l-428-266q-25-16-41.5-5.5t-16.5 39.5v514q0 29 16.5 39.5t41.5-5.5l428-266z"/><glyph glyph-name="glyph152" unicode="■" horiz-adv-x="630" d="M541 650q74 0 74-64v-470q0-66-74-66h-450q-76 0-76 66v470q0 36 18 50t58 14h450z"/><glyph glyph-name="glyph153" unicode="⎉" horiz-adv-x="560" d="M545 636v-570q0-66-90-66t-90 66v570q0 64 90 64t90-64zm-440 64q90 0 90-64v-570q0-66-90-66t-90 66v570q0 64 90 64z"/><glyph glyph-name="glyph154" unicode="⚫" horiz-adv-x="730" d="M365 700q146 0 248-102t102-248q0-144-102-247t-248-103-248 103-102 247q0 146 102 248t248 102z"/><glyph glyph-name="glyph155" unicode="⏭" horiz-adv-x="630" d="M427 374q14-11 14-24 0-11-14-22l-362-228q-23-14-36.5-4.5t-13.5 34.5v442q0 25 13.5 34.5t36.5-4.5zm114 268q74 0 74-58v-466q0-58-74-58-76 0-76 58v466q0 58 76 58z"/><glyph glyph-name="glyph156" unicode="⏮" horiz-adv-x="630" d="M203 374l364 228q22 14 35 4.5t13-34.5v-442q0-25-13-34.5t-35 4.5l-364 228q-14 11-14 22 0 13 14 24zm-188 210q0 58 76 58 74 0 74-58v-466q0-58-74-58-76 0-76 58v466z"/><glyph glyph-name="glyph157" unicode="⏩" horiz-adv-x="910" d="M881 374q14-11 14-24 0-14-14-22l-372-248q-23-14-37.5-5.5t-14.5 35.5v482q0 27 14.5 35.5t37.5-5.5zm-454 0q14-11 14-24 0-14-14-22l-360-248q-22-15-37-5.5t-15 35.5v482q0 26 15 35.5t37-5.5l360-248z"/><glyph glyph-name="glyph158" unicode="⏪" horiz-adv-x="910" d="M29 374l374 248q22 15 37 5.5t15-35.5v-482q0-26-15-35.5t-37 5.5l-374 248q-14 8-14 22 0 13 14 24zm440-24q0 13 14 24l360 248q22 15 37 5.5t15-35.5v-482q0-26-15-35.5t-37 5.5l-360 248q-14 8-14 22z"/><glyph glyph-name="glyph159" unicode="" d="M915 600q41 0 70.5-29.5t29.5-70.5v-300q0-42-29-71t-71-29h-800q-41 0-70.5 29.5t-29.5 70.5v300q0 40 30 70t70 30h800zm0-400v300h-800v-300h800z"/><glyph glyph-name="glyph160" unicode="" d="M915 600q41 0 70.5-29.5t29.5-70.5v-300q0-42-29-71t-71-29h-800q-41 0-70.5 29.5t-29.5 70.5v300q0 40 30 70t70 30h800zm0-100h-800v-300h800v300zm-750-250v198h200v-198h-200z"/><glyph glyph-name="glyph161" unicode="" d="M915 600q41 0 70.5-29.5t29.5-70.5v-300q0-42-29-71t-71-29h-800q-41 0-70.5 29.5t-29.5 70.5v300q0 40 30 70t70 30h800zm0-100h-800v-300h800v300zm-750-52h200v-198h-200v198zm250-198v198h200v-198h-200z"/><glyph glyph-name="glyph162" unicode="" d="M915 600q41 0 70.5-29.5t29.5-70.5v-300q0-42-29-71t-71-29h-800q-41 0-70.5 29.5t-29.5 70.5v300q0 40 30 70t70 30h800zm0-100h-800v-300h800v300zm-750-52h200v-198h-200v198zm250 0h200v-198h-200v198zm250 0h200v-198h-200v198z"/><glyph glyph-name="glyph163" unicode="🎯" horiz-adv-x="890" d="M749 654q126-126 126-304t-126-304-304-126-304 126-126 304 126 304 304 126 304-126zm-268-652q123 13 212 102 88 88 100 212h-192v70h192q-12 124-100 212-89 89-212 102v-194h-70v194q-125-14-213-102-89-89-101-212h194v-70h-194q12-123 101-212 88-88 213-102v194h70v-194z"/><glyph glyph-name="glyph164" unicode="🎨" horiz-adv-x="1010" d="M973 512q29-62 20-104-8-39-28.5-46.5t-60.5 8.5q-95 35-160-36-30-46-21-75 10-31 34-65 25-35 23-50-2-26-36-63-33-36-126-74-90-37-216-37-185 0-291 101t-95 245q7 117 104 235 95 116 216 151 289 84 536-80 72-48 101-110zm-419-356q31 0 52.5 22.5t21.5 53.5-21.5 52.5-52.5 21.5q-32 0-54-21.5t-22-52.5q0-32 22-54t54-22z"/><glyph glyph-name="glyph165" unicode="" horiz-adv-x="730" d="M115 200q19 0 34.5-15t15.5-35-15.5-35-34.5-15h-50q-19 0-34.5 15t-15.5 35 14.5 35 35.5 15h50zm0 200q19 0 34.5-15t15.5-35-15.5-35-34.5-15h-50q-19 0-34.5 15t-15.5 35 14.5 35 35.5 15h50zm0 200q19 0 34.5-15t15.5-35-15.5-35-34.5-15h-50q-19 0-34.5 15t-15.5 35 14.5 35 35.5 15h50zm200-100q-19 0-34.5 15t-15.5 35 15.5 35 34.5 15h350q21 0 35.5-15t14.5-35-15.5-35-34.5-15h-350zm350-100q21 0 35.5-15t14.5-35-15.5-35-34.5-15h-350q-19 0-34.5 15t-15.5 35 15.5 35 34.5 15h350zm0-200q21 0 35.5-15t14.5-35-15.5-35-34.5-15h-350q-19 0-34.5 15t-15.5 35 15.5 35 34.5 15h350z"/><glyph glyph-name="glyph166" unicode="" d="M365 400q21 0 35.5-15t14.5-35-15.5-35-34.5-15h-300q-19 0-34.5 15t-15.5 35 14.5 35 35.5 15h300zm0-200q21 0 35.5-15t14.5-35-15.5-35-34.5-15h-300q-19 0-34.5 15t-15.5 35 14.5 35 35.5 15h300zm650 150q0-50-30-50h-170v-170q0-30-50-30t-50 30v170h-164q-30 0-30 50t30 50h164v170q0 30 50 30t50-30v-170h170q30 0 30-50zm-650 250q21 0 35.5-15t14.5-35-15.5-35-34.5-15h-300q-19 0-34.5 15t-15.5 35 14.5 35 35.5 15h300z"/><glyph glyph-name="glyph167" unicode="📶" horiz-adv-x="1010" d="M505 150q41 0 70.5-29.5t29.5-70.5q0-42-29-71t-71-29q-40 0-69 29.5t-29 70.5q0 40 29 70t69 30zm-210 112q88 88 210 88t210-88l-70-72q-58 58-140 58t-140-58zm-140 140q145 148 351 148 205 0 349-148l-70-70q-115 118-279 118-163 0-281-118zm-140 142q204 206 491 206 286 0 489-206l-70-70q-174 176-420 176t-420-176l-70 70z"/><glyph glyph-name="glyph168" unicode="🏆" horiz-adv-x="930" d="M879 718q14 0 25-10t11-24q0-155-84-245-46-49-74-72t-88-61q-78-52-111-87t-33-85v-66q68-7 116-32 46-24 46-56 0-36-65-63-64-27-157-27-90 0-156 27t-66 63q0 32 46 56 48 25 118 32v66q0 50-33 84-31 32-113 88-60 38-88 61t-74 72q-84 90-84 245 0 14 11 24t25 10h172q48 92 242 92 196 0 244-92h170zm-90-218q47 59 54 148h-126q-6-159-54-262 79 56 126 114zm-324 250q-52 0-100.5-13t-71.5-34q-18-17-18-29 0-14 18-31 23-21 71.5-34t100.5-13 100.5 13 71.5 34q18 17 18 31 0 12-18 29-23 21-71.5 34t-100.5 13zm-378-102q7-89 54-148 47-58 126-114-48 103-54 262h-126z"/><glyph glyph-name="glyph169" unicode="🔋" d="M821 193q36-59 78-59h66q-29-45-64-65-34-19-118-19h-500q-130 0-199 94t-69 206q0 110 69 205t199 95h500q84 0 118-19 35-20 64-65h-66q-42 0-78-60t-36-156q0-98 36-157zm-180 93q-140 137-178 164-33 20-44 8-9-9-18-30l-22-56-148 66q-26 12-34 0-8-15 8-28 137-132 180-162 34-16 42-11 7 4 18 31l24 58 146-68q26-12 34 2 11 12-8 26zm318 166q26 0 41-30.5t15-67.5q0-38-15-69t-41-31h-38q-26 0-40 31t-14 69 14 68 40 30h38z"/><glyph glyph-name="glyph170" unicode="" horiz-adv-x="970" d="M836 640q119-121 119-290t-119-290q-118-120-289-120-139 0-252 88l70 76q83-60 182-60 126 0 216 90t90 216q0 128-90 218t-216 90q-124 0-213-86-88-86-93-210h142l-184-206-184 206h124q5 166 123 282 119 116 285 116 171 0 289-120zm-325-70h70v-204l130-130-50-50-150 150v234z"/><glyph glyph-name="glyph171" unicode="💻" d="M915 790q41 0 70.5-29.5t29.5-70.5v-550q0-42-29.5-77t-68.5-43l-218-44 86-38q49-28-20-28h-500q-97 0 32 52l36 14-220 44q-39 8-68.5 43t-29.5 77v550q0 40 30 70t70 30h800zm0-646v556h-800v-556h800z"/><glyph glyph-name="glyph172" unicode="📱" horiz-adv-x="610" d="M495 840q42 0 71-29t29-71v-780q0-41-29.5-70.5t-70.5-29.5h-380q-40 0-70 30t-30 70v780q0 41 29.5 70.5t70.5 29.5h380zm-190-940q27 0 48.5 14t21.5 36q0 23-21 36.5t-49 13.5q-26 0-48-14.5t-22-35.5 22-35.5 48-14.5zm210 150v660h-420v-660h420z"/><glyph glyph-name="glyph173" unicode="" horiz-adv-x="950" d="M197 494q-51 56-92 128 55 75 128 118 89-37 152-82-6-16-6-32 0-7 4-22-62-48-116-104-15 4-28 4-23 0-42-10zm-36-148q-61-116-80-232-66 106-66 236 0 109 50 206 39-64 84-112-8-26-8-38 0-34 20-60zm266 364q-56 40-114 70 84 30 162 30 120 0 230-62-74-13-162-50-26 26-66 26-27 0-50-14zm-94-334q4 17 4 30 0 22-14 52 36 42 98 90 26-20 56-20 12 0 38 8 93-106 134-240-14-11-26-32-160 24-290 112zm420-300q0 6-1 28t-1 28q37 14 54 60 59 4 108 18-47-147-166-232 6 48 6 98zm-456-150q-90 36-158 110 12 142 80 274 8-2 20-2 29 0 52 14 145-99 310-124-189-95-304-272zm638 424q0-27-4-66-65-18-130-24-24 56-88 60-48 146-148 264 10 19 10 42v10q101 42 210 54 150-136 150-340zm-286-204q13-10 32-18 2-24 2-52 0-77-14-144-85-42-194-42-58 0-112 12 109 159 286 244z"/><glyph glyph-name="glyph174" unicode="💿" horiz-adv-x="950" d="M800 675q135-135 135-325t-135-325-325-135-325 135-135 325 135 325 325 135 325-135zm-325-475q61 0 105.5 44t44.5 106q0 64-43 107t-107 43q-61 0-105.5-44t-44.5-106 44.5-106 105.5-44z"/><glyph glyph-name="glyph175" unicode="" horiz-adv-x="1029" d="M1012 326l-28-154q-4-19-21.5-32.5t-40.5-13.5h-816q-23 0-40.5 13.5t-21.5 32.5l-28 154q-8 32 32 72 5 7 36 38 13 13 61 60t59 58q22 22 52 22h516q30 0 52-22 30-30 120-117 32-30 38-39 40-42 30-72zm-296 40h178l-102 114h-556l-102-114h178q7 0 12-8l40-100h300l40 100q5 8 12 8z"/><glyph glyph-name="glyph176" unicode="" horiz-adv-x="931" d="M899 306q24-53 14-96l-34-184q-2-20-19.5-35t-38.5-15h-712q-21 0-38.5 15t-19.5 35l-34 184q-8 51 14 96l158 374q22 46 72 46h104l-20-204h-134l254-210 256 210h-136l-18 204h102q50 0 74-46zm-68-132q2 22-10.5 38t-33.5 16h-644q-21 0-33.5-16t-10.5-38l14-74q2-20 18.5-36t37.5-16h592q22 0 39 15.5t19 36.5l12 74z"/><glyph glyph-name="glyph177" unicode="🌎" horiz-adv-x="990" d="M835 689q140-142 140-339 0-200-140-340t-340-140q-197 0-339 140-141 140-141 340 0 198 141 339t339 141q201 0 340-141zm-8-100q-79 107-202 149-18-24-16-32 5-38 18-51t30-7l32 12q7 1 20 2 23-24 0-47-21-21-45-56-23-34-1-77 34-64 96-64 28-1 43-36 16-36 17-66 10-79-14-140-23-44 14-76 86 113 86 250 0 132-78 239zm-454-539q10 0 11.5 23t-2 57-3.5 36q0 30 14 74 12 41 59 70 48 29 55 46 25 52-8 104-18 28-75 45-42 13-59 13-13 5-38.5 7t-39.5-3q-10-4-27 11t-17 29q0 10 15 27 6 7 31 32.5t32 34.5q10 18 39 37 9 6 23 17.5t29 20.5q22 14 27 23-114-15-200.5-86t-125.5-172q4 0 14-1t21-2.5 15-1.5q58-5 62-25 4-11-14-45-18-33-18-61 0-30 38-56t38-46q0-25 8-68t8-44q0-12 36-54t52-42zm-6-90q68-20 128-20 128 0 226 68-26 45-118 34-23-1-65-17-44-16-47-17-71-16-76-16-7-1-16-7t-19.5-15-12.5-10z"/><glyph glyph-name="glyph178" unicode="☁" d="M775 494q99 0 170-68 70-67 70-166t-70-166q-71-68-170-68h-578q-73 0-127.5 52t-54.5 124q0 74 53.5 126t128.5 52q1 0 10-1t10-1q-2 16-2 38 0 108 78 184 77 76 188 76 92 0 161.5-53.5t92.5-132.5q25 4 40 4z"/><glyph glyph-name="glyph179" unicode="⛈" d="M481 676q92 0 161.5-53.5t92.5-132.5q25 4 40 4 99 0 170-68 70-67 70-166t-70-166q-71-68-170-68h-578q-73 0-127.5 52t-54.5 124q0 74 53.5 126t128.5 52q1 0 10-1t10-1q-2 16-2 38 0 108 78 184 77 76 188 76zm102-398q14 17 14 30 0 20-30 32h-4q-28 15-38 16l50 116q6 0 6 20 0 19-15 21t-27-11q-10-10-26-27t-36-39-29-32q-35-38-45-52-12-18-12-30 0-22 30-30 6-3 42-18l-52-114q-4-12-4-22t8-18q17-10 34 10 98 98 134 148z"/><glyph glyph-name="glyph180" unicode="⚡" horiz-adv-x="430" d="M55-100q-4 4 35 94 73 168 79 182 40 90 38 98-1 6-94 45-92 39-98 55-5 12 84 120 93 113 180 209 47 52 70.5 75.5t25.5 21.5q6-4-74-186.5t-78-185.5q1-4 95-43 92-39 97-57 5-20-174-227t-186-201z"/><glyph glyph-name="glyph181" unicode="☽" horiz-adv-x="850" d="M539 238q105 105 125 252 19 145-53 270 53-26 96-72 128-128 128-309t-128-309-310-128-310 128q-41 41-72 94 124-70 271-51 148 20 253 125z"/><glyph glyph-name="glyph182" unicode="✈" horiz-adv-x="1033" d="M283-120l124 400h-180l-112-100h-100l80 170-80 170h100l112-100h180l-124 400h100l224-400h274q12-1 36-4 37-5 46-11 11-7 36-21 27-14 16-34 0-32-38-49-40-18-74-19l-38-2h-258l-224-400h-100z"/><glyph glyph-name="glyph183" unicode="" horiz-adv-x="951" d="M909 720q13 4 21.5-3t4.5-19q-3-8-73-313.5t-73-312.5q-2-13-13-18.5t-25 .5q-46 25-139 75t-139 75l22 26q103 112 209.5 227t144.5 156 40 43q4 4-1 9t-9 1l-550-402q-58 22-302 120-12 4-12 12t12 12q7 4 227 82t437 154 218 76zm-582-728v204l160-82q-122-108-142-128-18-14-18 6z"/><glyph glyph-name="glyph184" unicode="🍂" horiz-adv-x="970" d="M251 646q182 107 506 66 169-23 196-50 4-5-2-10-76-40-130-109t-78-132q-23-61-65-132-40-69-93-105-137-96-382-4-67-78-114-176-12-24-47-7t-25 39q43 100 129 193 87 95 176 153 179 119 317 174l54 20q-65 0-148.5-15.5t-144.5-37.5q-70-25-162-84-89-57-161-141-23 242 174 358z"/><glyph glyph-name="glyph185" unicode="" horiz-adv-x="950" d="M795 680q135-131 140-322 2-192-131-327-134-137-323-141-192-2-327 131-138 134-139 323-4 190 130 327 134 138 324 139t326-130zm-504 26l62-104q55 28 122 28t122-28l62 104q-87 46-190 44-93 0-178-44zm-68-478q-28 59-28 122 0 65 28 124l-102 62q-46-88-46-190 1-94 46-180zm436-232l-62 104q-60-30-122-30t-122 30l-62-104q85-46 190-46 100 5 178 46zm-28 199q64 64 64 155 0 92-64 156t-156 64-156-64-64-156q0-91 64-155 65-65 156-65t156 65zm96 33l104-62q46 94 44 190 0 95-44 180l-104-62q28-59 28-124 0-63-28-122z"/><glyph glyph-name="glyph186" unicode="" horiz-adv-x="591" d="M566 130q29-80-17-157-45-77-139-111-94-28-175 9-80 37-103 117l-106 384q-22 75 7 139t83 101l-96 186q-14 35 14 48 30 18 48-14l98-192q79 22 154-16 73-37 102-116zm-324 274q25 9 39 34t5 56q-9 26-33 40t-55 6q-25-9-39-34t-5-56q9-26 33-40t55-6z"/><glyph glyph-name="glyph187" unicode="💼" d="M471 226h-456q2 61 4.5 128.5t4 106 1.5 57.5q5 108 100 108h160q22 36 60 112 14 26 23 32t37 6h222q26 0 36-7t22-31q11-19 60-112h160q95 0 100-108l10-292h-454v100h-90v-100zm-102 400h292l-28 54q-14 26-42 26h-152q-28 0-42-26zm192-550v100h430q-3-42-10-166-6-84-90-84h-750q-90 0-90 84l-10 166h430v-100h90z"/><glyph glyph-name="glyph188" unicode="" d="M915 650q41 0 70.5-29.5t29.5-70.5v-550q0-42-29-71t-71-29h-50v750h50zm-900-100q0 40 30 70t70 30h50v-750h-50q-41 0-70.5 29.5t-29.5 70.5v550zm670 100h110v-750h-560v750h110v104q96 46 170 46t170-46v-104zm-60 0v66q-53 24-110 24-55 0-110-24v-66h220z"/><glyph glyph-name="glyph189" unicode="" horiz-adv-x="250" d="M125 460q46 0 78-32t32-78q0-44-32.5-77t-77.5-33-77.5 33-32.5 77q0 46 32 78t78 32z"/><glyph glyph-name="glyph190" unicode="" horiz-adv-x="600" d="M125 460q46 0 78-32t32-78q0-44-32.5-77t-77.5-33q-46 0-78 32t-32 78 32 78 78 32zm350 0q46 0 78-32t32-78q0-44-33.5-77t-76.5-33q-46 0-78 32t-32 78 32 78 78 32z"/><glyph glyph-name="glyph191" unicode="" horiz-adv-x="950" d="M125 460q46 0 78-32t32-78q0-44-32.5-77t-77.5-33-77.5 33-32.5 77q0 46 32 78t78 32zm350 0q46 0 78-32t32-78q0-44-33.5-77t-76.5-33-76.5 33-33.5 77q0 46 32 78t78 32zm350 0q46 0 78-32t32-78q0-44-32.5-77t-77.5-33-77.5 33-32.5 77q0 46 32 78t78 32z"/><glyph glyph-name="glyph192" unicode="" horiz-adv-x="992" d="M133 170q47 37 94 27t83.5-48.5 42.5-81.5q6-47-30-83-85-84-228-102-28-4-46.5-3.5t-27 4.5-6.5 13q0 4 6 10 52 59 64 145 12 84 48 119zm840 646q26-26-148-248-177-226-292-338-36-36-124-104-8-6-16 8-18 34-49.5 65.5t-64.5 46.5q-15 6-8 16 68 89 104 122 124 121 344 287 226 170 254 145z"/><glyph glyph-name="glyph193" unicode="" horiz-adv-x="850" d="M549 120l260-20-16-166q-4-28-32-24l-200 16q-28 0-28 30zm-506-20l258 20 16-164q2-12-6.5-21t-21.5-9l-198-16q-11-2-21.5 5.5t-10.5 18.5zm-26 270q-2 16-2 34 0 160 120 273 121 113 290 113t290-113q120-113 120-273 0-18-2-34l-16-170-258 22 16 170v12q0 59-44.5 99.5t-105.5 40.5-105.5-40.5-44.5-99.5v-12l16-170-258-22-16 170z"/><glyph glyph-name="glyph194" unicode="∞" d="M515 426q54 61 132 102.5t164 41.5q83 0 144-53 60-53 60-167 0-112-60-166t-144-54q-86 0-163 42t-133 104q-54-61-131.5-103.5t-162.5-42.5q-86 0-146 54t-60 166q0 114 60 167 61 53 146 53 86 0 163.5-41.5t130.5-102.5zm-54-76q-42 53-106.5 92.5t-133.5 39.5q-114 0-114-132t114-132q68 0 133.5 40t106.5 92zm350-132q114 0 114 132t-114 132q-69 0-134.5-39.5t-105.5-92.5q40-53 105.5-92.5t134.5-39.5z"/><glyph glyph-name="glyph195" unicode="⌫" horiz-adv-x="1032" d="M917 700q42 0 71-29t29-71v-500q0-41-29.5-70.5t-70.5-29.5h-478q-39 0-70 28l-340 296q-29 26 0 54l340 296q31 26 70 26h478zm-140-550l72 74-128 126 128 128-72 72-128-126-128 126-72-72 128-128-128-126 72-74 128 128 128-128z"/><glyph glyph-name="glyph196" unicode="" horiz-adv-x="870" d="M383 402h-368q18 146 121 249 102 102 247 119v-368zm106 368q155-19 261-139 105-119 105-279 0-174-123-298t-299-124q-159 0-278 105-117 104-140 263h424q20 0 35 14.5t15 35.5v422z"/><glyph glyph-name="glyph197" unicode="📈" horiz-adv-x="1033" d="M49 284q-42 11-32 56 11 42 54 32l98-24-52-80zm890-12q14 12 33.5 11t30.5-15q33-32-2-64l-252-226q-12-12-30-12-15 0-28 10l-286 220-54 14 50 80 36-8q13-5 16-8l264-204zm-490 220l-350-550q-12-22-38-22-25 0-39 24t1 46l374 588q7 15 28 20 18 6 36-6l246-156 226 326q10 16 27.5 19t34.5-9q38-24 12-62l-252-362q-24-36-62-12l-244 156z"/><glyph glyph-name="glyph198" unicode="📊" horiz-adv-x="830" d="M765 800q21 0 35.5-15t14.5-35v-850h-200v850q0 50 40 50h110zm-300-300q21 0 35.5-15t14.5-35v-550h-200v550q0 50 40 50h110zm-300-300q21 0 35.5-15t14.5-35v-250h-200v250q0 50 40 50h110z"/><glyph glyph-name="glyph199" unicode="🔾" horiz-adv-x="1010" d="M979 732q16 22 16-4v-768h-964q-12 0-15 7.5t5 16.5l230 288q19 22 40 2l74-66q10-8 21-7t17 11l158 238q17 26 38 4l112-104q20-20 38 4l230 378z"/><glyph glyph-name="glyph200" unicode="✇" d="M948 513q67-67 67-163 0-95-67-162-68-68-163-68h-540q-94 0-162 68t-68 162q0 95 68 163 67 67 162 67 96 0 163-67t67-163q0-72-40-130h160q-40 64-40 130 0 95 68 163 67 67 162 67 96 0 163-67zm-833-163q0-52 38.5-91t91.5-39 91.5 39 38.5 91q0 53-38.5 91.5t-91.5 38.5-91.5-38.5-38.5-91.5zm670-130q53 0 91.5 39t38.5 91q0 53-38.5 91.5t-91.5 38.5-91.5-38.5-38.5-91.5q0-52 38.5-91t91.5-39z"/><glyph glyph-name="glyph201" unicode="🎓" d="M515 70l276 136q-1-8-4-27.5t-5-30.5-6-25-10-22q-17-25-69-45-24-10-75.5-38.5t-67.5-36.5q-24-11-39-11-17 0-40 13-10 5-41 23t-57 32-46 22q-71 31-103 69-30 36-47 109zm-94 386q0-26 29-41t65-15q27 0 36 4l292-68-268-152q-60-32-120 0l-416 234q-24 14-24 33t24 33l416 234q60 32 120 0l416-234q24-14 24-33t-24-33l-78-44-308 102q-23 36-90 36-36 0-65-15t-29-41zm442-414q18 113 13 182-4 64-19 90l-14 22 70 38q5-7 12-28 7-22 17-101 11-83-7-197-5-26-22-30-15-3-33.5 4.5t-16.5 19.5z"/><glyph glyph-name="glyph202" unicode="" horiz-adv-x="1031" d="M929 634l8-48q4-10-4-12l-176-30v-102h12q86 0 148-36.5t86-99.5q30-83-10-176-41-95-134-160-10 0-12 2l-32 38q-2 6 2 10 85 60 117 152t-11 148q-34-82-98-156-35-41-84-64.5t-108-15.5q-53 6-84.5 41.5t-31.5 92.5q0 84 60 148 49 50 114 66l-2 100q-139-24-146-24-6-1-10 4l-3 14q-2 13-4.5 28t-2.5 18q-3 3 1 4.5t7 1.5l156 28q0 108-2 114 0 8 8 8 44 0 52 2 10 0 10-8v-104q154 22 164 22 8 5 10-6zm-238-268q-44-15-74-56.5t-30-91.5q0-66 46-72 28-6 62 6zm78 14q-1 0-6-1t-6-1l-2-204q26 22 57 67t46 80 7 41q-36 18-96 18zm-462 176q14-38 39.5-118.5t56-178 40.5-129.5q40-123 40-126 0-4-4-4h-86q-6 0-6 4l-50 166h-176q-48-164-50-166 0-4-6-4h-86q-4 0-4 4 8 14 176 552 2 8 10 8h96q10 0 10-8zm-130-316h144l-72 264-72-264z"/><glyph glyph-name="glyph203" unicode="🎫" horiz-adv-x="970" d="M231 272l178-178 326 326-178 178zm484 408q0-42 30-71t72-29q25 0 48 12l76-76q14-14 14-36t-14-36l-550-550q-16-16-36-16t-36 16l-76 76q12 20 12 48 0 42-29 72t-71 30q-20 0-50-14l-74 76q-16 16-16 36t16 36l550 550q14 14 36 14t36-14l74-76q-12-22-12-48zm-306-666l406 406-258 258-408-406 260-258z"/><glyph glyph-name="glyph204" unicode="💦" horiz-adv-x="970" d="M177 294q-65 0-113.5 47.5t-48.5 112.5q0 58 33 112 20 33 73 123 39 67 50 155 1 4 7 4 5 0 5-4 11-88 50-155 53-90 73-123 33-54 33-112 0-65-48.5-112.5t-113.5-47.5zm616 0q-65 0-113.5 47.5t-48.5 112.5q0 87 69 171 30 37 55 98t32 121q1 4 7 4 5 0 5-4 11-88 50-155 53-90 73-123 33-54 33-112 0-65-48.5-112.5t-113.5-47.5zm-314 106q1 4 7 4 5 0 5-4 11-88 50-155 53-90 73-123 33-54 33-112 0-65-48.5-112.5t-113.5-47.5-113.5 47.5-48.5 112.5q0 58 33 112 20 33 73 123 39 67 50 155z"/><glyph glyph-name="glyph205" unicode="💧" horiz-adv-x="590" d="M365 603q48-104 92-159 118-151 118-296 0-113-83-196-82-82-197-82t-197 82q-83 83-83 196 0 147 118 296 44 55 92 159 47 101 60 219 2 8 11 8t9-8q13-118 60-219zm-102-173q2 5-2 14-6 6-14 6-7 0-12-6l-40-58q-8-12-48-70-15-23-34-75-18-51-18-101 0-24 17-41t41-17q58 0 58 68 0 94 42 246 1 4 5 17t5 17z"/><glyph glyph-name="glyph206" unicode="" horiz-adv-x="935" d="M100 534q-25-22-55-5.5t-27 47.5q2 22 18 36 49 42 79 60 36 22 89 40 60 20 129 4 71-16 159-66 90-50 155-53 68-3 100 16 36 22 89 67 38 30 70-6 32-40-6-72-122-110-234-110-101 0-222 70-70 39-119 52-51 14-93 0-42-13-65-29-28-18-67-51zm806-116q32-40-6-72t-65-53q-28-22-77-39.5t-92-17.5q-97 0-222 70-70 39-119 52-51 14-93 0-42-13-65-29-28-18-67-51-16-14-36.5-11.5t-33.5 17.5q-32 40 6 72 43 39 62 52t67 36q49 23 91.5 24t101.5-16q66-17 134-56 70-39 119-52 51-14 93 0 42 13 65 29 28 18 67 51 38 32 70-6zm-70-250q38 32 70-6 14-16 11.5-37.5t-17.5-34.5q-38-32-65-53-28-22-77-39.5t-92-17.5q-97 0-222 70-70 39-119 52-53 14-93 1-45-14-66-29-27-19-66-52-16-14-36.5-11.5t-33.5 17.5q-32 40 6 72 43 39 62 52t67 36q49 23 91.5 24t101.5-16q66-17 134-56 70-39 119-52 51-14 93 0 42 13 65 29 28 18 67 51z"/><glyph glyph-name="glyph207" unicode="💳" d="M915 700q41 0 70.5-29.5t29.5-70.5v-500q0-42-29-71t-71-29h-800q-41 0-70.5 29.5t-29.5 70.5v500q0 40 30 70t70 30h800zm0-300h-800v-300h800v300zm0 200h-800v-50h800v50zm-670-306v-30h-30v30h30zm180-60v30h30v30h60v-30h-30v-30h-30v-30h-60v30h30zm60-30v30h30v-30h-30zm-180 0v30h60v-30h-60zm90 30h-30v60h60v-30h-30v-30zm-120 0v-30h-60v30h30v30h30v30h60v-30h-30v-30h-30z"/><glyph glyph-name="glyph208" unicode="💾" horiz-adv-x="830" d="M15 650q0 41 29.5 70.5t70.5 29.5h558l142-156v-544q0-41-29.5-70.5t-70.5-29.5h-600q-40 0-70 30t-30 70v600zm550-250q19 0 34.5 15t15.5 35v250h-400v-250q0-20 15.5-35t34.5-15h300zm0 250v-200h-100v200h100z"/><glyph glyph-name="glyph209" unicode="📋" horiz-adv-x="730" d="M85-150q-29 0-49.5 20.5t-20.5 49.5v760q0 28 21 49t49 21l60-150h440l60 150q28 0 49-21t21-49v-760q0-29-20.5-49.5t-49.5-20.5h-560zm460 800h-360l-44 100h108l36 100h160l36-100h110l-46-100z"/><glyph glyph-name="glyph210" unicode="📣" horiz-adv-x="890" d="M873 242q9-120-39-140-28-12-61 3-36 16-65 40-37 28-106.5 42t-141.5 7q-26-4-41.5-18t-6.5-38q26-65 46-108 4-10 24-22 19-12 24-20 13-34-22-46-45-20-102-40-30-10-54 42-23 56-58 132-6 13-34 17-27 4-46 31-6-2-20-7t-19-6.5-16-3.5-18-.5-17 5-22 10.5q-40 24-54 60-16 30-5 79 11 47 43 61 126 52 213 108 84 54 124 103 34 42 59 92 22 44 25 78 7 76 51 95 48 19 130-70t142-228q58-137 67-258zm-95-42q9 5 10 38 2 38-11 98-27 133-108 251-40 58-67 84-29 27-36 23-9-5-10-42-2-40 10-105 25-141 108-252 44-57 68-76 29-23 36-19z"/><glyph glyph-name="glyph211" unicode="" horiz-adv-x="730" d="M715 206v-100q0-73-104-135-103-61-246-61-141 0-245 61-105 61-105 135v100q0 10 4.5 10.5t9.5-8.5q34-56 130.5-88t205.5-32 205 32 131 88q14 20 14-2zm0 256v-116q0-68-102-114-101-46-248-46-145 0-247 46-103 46-103 114v116q0 20 14 0 33-50 130.5-77t205.5-27 205.5 26.5 132.5 77.5q7 16 12 0zm-350 328q143 0 247-39 103-39 103-93v-64q0-59-103-99-105-41-247-41t-247 41q-103 40-103 99v64q0 54 103 93 104 39 247 39z"/><glyph glyph-name="glyph212" unicode="" horiz-adv-x="932" d="M899 304q26-44 14-96l-34-184q-2-20-19.5-35t-38.5-15h-712q-20 0-38 15.5t-20 34.5l-34 184q-8 54 14 96l158 374q22 46 72 46h408q50 0 74-46zm-68-132q2 22-10.5 38t-33.5 16h-644q-21 0-33.5-16t-10.5-38l14-74q2-21 19-36.5t39-15.5h590q22 0 39 15.5t19 36.5l12 74z"/><glyph glyph-name="glyph213" unicode="" horiz-adv-x="943" d="M537 360q-28 0-49-21t-21-49q0-20 10-36-43-52-108.5-86.5t-137.5-29.5q-101 10-157 57-54 46-59 109-8 122 156 184-17 89-22 138-8 56 104 105 111 49 284 49 175 0 286-49 112-49 104-105-24-150-45.5-288.5t-32-207-14.5-92.5q-1-18-37-44-35-26-107-50t-154-24q-83 0-153 24-71 24-106 50-36 26-37 44 0 5-4 30 91-7 170 38t132 114q28 0 48 20.5t20 49.5-20.5 49.5-49.5 20.5zm-415-109q33-27 91-39l-32 204q-101-44-96-106 5-33 37-59zm415 271q71 0 149 16.5t121 40.5q38 21 38 35t-38 35q-44 24-121 40.5t-149 16.5q-71 0-147.5-16.5t-120.5-40.5q-38-21-38-35t38-35q43-24 120-40.5t148-16.5z"/><glyph glyph-name="glyph214" unicode="" horiz-adv-x="570" d="M415 356q62-35 101-96t39-140q0-112-79-191t-191-79-191 79-79 191q0 79 39 140t101 96v444q0 50 40 50h170q19 0 34.5-15t15.5-35v-444zm-130-406q70 0 120 50t50 120q0 58-33 101t-83 59v370h-100v-368q-51-15-87.5-59.5t-36.5-102.5q0-70 50-120t120-50z"/><glyph glyph-name="glyph215" unicode="🔑" horiz-adv-x="810" d="M761 397q-48-99-150-117-67-12-130-2l-118-194-70-12-104-166q-13-27-46-32l-76-14q-13-4-22.5 4.5t-11.5 21.5l-16 98q-8 30 12 56l258 386q-25 51-38 120-10 57 7 108t52.5 87 81.5 60 97 33q107 20 195-45 89-65 107-177 20-117-28-215zm-98 139q30 49 20 100t-50 80q-53 37-109 17.5t-75-72.5q-4-10 4-36 4-13 31-32 12-8 67-49 6-5 42-28 13-8 19-8 32 0 51 28z"/><glyph glyph-name="glyph216" unicode="" horiz-adv-x="670" d="M535 120q49 0 84.5-35t35.5-85-35.5-85-84.5-35q-80 0-110 74h-164q-87 0-131 54-43 53-43 118v464q-72 34-72 110 0 50 35.5 85t84.5 35 84.5-35 35.5-85q0-76-72-110v-114q0-78 78-78h164q30 72 110 72 49 0 84.5-35t35.5-85-35.5-85-84.5-35q-80 0-110 74h-164q-43 0-78 16v-194q0-78 78-78h164q30 72 110 72zm0 300q-29 0-49.5-20.5t-20.5-49.5q0-28 21-48t49-20 49 20 21 48q0 29-20.5 49.5t-49.5 20.5zm-470 280q0-28 21-48t49-20 49 20 21 48q0 29-20.5 49.5t-49.5 20.5-49.5-20.5-20.5-49.5zm470-768q28 0 49 20t21 48q0 29-20.5 49.5t-49.5 20.5-49.5-20.5-20.5-49.5q0-28 21-48t49-20z"/><glyph glyph-name="glyph217" unicode="" horiz-adv-x="670" d="M535 770q49 0 84.5-35t35.5-85q0-80-74-110-12-120-89-170-38-25-64.5-36.5t-78.5-27.5q-76-25-110-46-47-29-54-100 70-30 70-110 0-50-35.5-85t-84.5-35-84.5 35-35.5 85q0 78 72 112v378q-72 34-72 110 0 50 35.5 85t84.5 35 84.5-35 35.5-85q0-76-72-110v-204q41 30 138 60 54 17 84 29 31 13 53.5 45t26.5 72q-70 31-70 108 0 50 35.5 85t84.5 35zm-468-120q0-28 20-48t48-20 49 20 21 48q0 29-20.5 49.5t-49.5 20.5q-28 0-48-20.5t-20-49.5zm68-668q28 0 49 20t21 48q0 29-20.5 49.5t-49.5 20.5q-28 0-48-20.5t-20-49.5q0-28 20-48t48-20zm400 600q28 0 49 20t21 48q0 29-20.5 49.5t-49.5 20.5q-28 0-48-20.5t-20-49.5q0-28 20-48t48-20z"/><glyph glyph-name="glyph218" unicode="" horiz-adv-x="970" d="M485 820q49 0 84.5-35t35.5-85q0-76-72-110v-140q0-52 78-52h100q85 0 129-54 43-53 43-118v-114q72-34 72-112 0-50-35.5-85t-84.5-35-84.5 35-35.5 85q0 78 72 112v114q0 78-76 78h-100q-43 0-78 12v-204q72-34 72-112 0-50-35.5-85t-84.5-35-84.5 35-35.5 85q0 78 72 112v204q-30-12-76-12h-100q-35 0-56.5-22t-21.5-56v-114q72-34 72-112 0-50-35.5-85t-84.5-35-84.5 35-35.5 85q0 78 72 112v114q0 65 43 118 44 54 131 54h100q76 0 76 52v140q-72 34-72 110 0 50 35.5 85t84.5 35zm-280-820q0 29-20.5 49.5t-49.5 20.5q-28 0-48-20.5t-20-49.5q0-28 20-48t48-20 49 20 21 48zm212 700q0-28 20-48t48-20 49 20 21 48q0 29-20.5 49.5t-49.5 20.5q-28 0-48-20.5t-20-49.5zm138-700q0 29-20.5 49.5t-49.5 20.5q-28 0-48-20.5t-20-49.5q0-28 20-48t48-20 49 20 21 48zm280-68q28 0 49 20t21 48q0 29-20.5 49.5t-49.5 20.5q-28 0-48-20.5t-20-49.5q0-28 20-48t48-20z"/><glyph glyph-name="glyph219" unicode="" horiz-adv-x="270" d="M135 770q49 0 84.5-35t35.5-85q0-76-72-110v-378q72-34 72-112 0-50-35.5-85t-84.5-35-84.5 35-35.5 85q0 78 72 112v378q-72 34-72 110 0 50 35.5 85t84.5 35zm-68-120q0-28 20-48t48-20 49 20 21 48q0 29-20.5 49.5t-49.5 20.5q-28 0-48-20.5t-20-49.5zm68-668q28 0 49 20t21 48q0 29-20.5 49.5t-49.5 20.5q-28 0-48-20.5t-20-49.5q0-28 20-48t48-20z"/><glyph glyph-name="glyph220" unicode="" horiz-adv-x="670" d="M135 770q49 0 84.5-35t35.5-85q0-76-72-110v-378q72-34 72-112 0-50-35.5-85t-84.5-35-84.5 35-35.5 85q0 78 72 112v378q-72 34-72 110 0 50 35.5 85t84.5 35zm70-720q0 29-20.5 49.5t-49.5 20.5q-28 0-48-20.5t-20-49.5q0-28 20-48t48-20 49 20 21 48zm-70 532q28 0 49 20t21 48q0 29-20.5 49.5t-49.5 20.5q-28 0-48-20.5t-20-49.5q0-28 20-48t48-20zm400 188q49 0 84.5-35t35.5-85q0-76-72-110v-378q72-34 72-112 0-50-35.5-85t-84.5-35-84.5 35-35.5 85q0 78 72 112v378q-72 34-72 110 0 50 35.5 85t84.5 35zm-68-120q0-28 20-48t48-20 49 20 21 48q0 29-20.5 49.5t-49.5 20.5q-28 0-48-20.5t-20-49.5zm68-668q28 0 49 20t21 48q0 29-20.5 49.5t-49.5 20.5q-28 0-48-20.5t-20-49.5q0-28 20-48t48-20z"/><glyph glyph-name="glyph221" unicode="🚀" horiz-adv-x="890" d="M558 236q7-56 8-81 2-33-8-59-4-10-7-22t-4.5-16-6-10-11-11-19.5-13l-33-19.5-16-9-26.5-11.5-39.5-17q-46-21-85-37-30-11-44.5 3.5t-3.5 44.5l40 110-130 132-106-40q-30-13-43.5 2.5t-2.5 45.5q3 8 16 41.5t25 62.5 17 40q37 75 47 81 2 1 12 8t17 12q17 13 41 13h52q24-2 71-6 37 52 106 124 64 66 122.5 107.5t140.5 71.5q85 31 165 19 17 0 20-20 10-85-18.5-170.5t-75.5-148.5q-99-133-184-199zm50 296q22-22 54-22t54 23 22 55-22 55-54 23-54-23-22-55q0-33 22-56z"/><glyph glyph-name="glyph222" unicode="" d="M635 462q180 228 194 220 12-6-96-278-109-273-138-326-50-86-136-36t-38 136q38 61 214 284zm-618-396q0 5-1 27t-1 27q0 227 145 382 146 156 355 156 73 0 134-18l-70-86q-36 4-64 4-169 0-284-127-116-128-116-311 0-11 1-26t1.5-23-2.5-17.5-10-16.5q-14-15-33.5-17t-36.5 12q-16 13-18 34zm860 430q138-154 138-376v-42l-1-12-2-10-3-9.5-5-7.5-7-8q-13-13-34-13h-4q-21 4-34.5 19.5t-11.5 36.5q2 18 2 46 0 149-80 268 4 10 21 55t21 53z"/><glyph glyph-name="glyph223" unicode="" horiz-adv-x="991" d="M495 432q58 0 108.5 16.5t61.5 47.5q2-6 20.5-58t35.5-100q-5-38-70-65-66-27-156-27t-156 27q-65 27-70 65 17 48 35.5 100t20.5 58q11-31 62.5-47.5t107.5-16.5zm-124 192l52 142q10 34 72 34t74-34q11-34 50-142-29-44-124-44t-124 44zm564-428q41-16 41-41.5t-37-46.5l-352-188q-37-22-91-22t-91 22l-354 188q-38 20-36 46t42 42l188 76-22-60q0-47 80-82 78-34 192-34t192 34q81 35 82 82l-22 60 188-76z"/><glyph glyph-name="glyph224" unicode="" horiz-adv-x="990" d="M829 694q141-137 146-336 2-200-136-342-137-141-338-146-200-2-341 137-144 140-145 337-5 200 135 342t339 144q198 2 340-136zm-62-608q109 112 108 270-1 157-115 267-111 109-269 107-157-2-267-114-109-111-107-270 1-158 114-267 111-109 270-107 157 2 266 114zm-450 264q0-80 60-80 40 0 58 40l56-30q-19-35-50-52-32-20-70-20-63 0-100.5 38.5t-37.5 103.5q0 64 36.5 104t97.5 40q87 0 124-66l-62-32q-17 36-52 36-60 0-60-82zm326-80q43 0 56 40l58-30q-17-31-48.5-51.5t-71.5-20.5q-64 0-100 38-38 36-38 104 0 63 38 106 38 38 98 38 84 0 120-66l-60-32q-17 36-52 36-62 0-62-82 0-35 15.5-57.5t46.5-22.5z"/><glyph glyph-name="glyph225" unicode="" horiz-adv-x="990" d="M495 526q68 0 68 68t-68 68q-66 0-66-68t66-68zm130-56q0 12-9.5 21t-22.5 9h-196q-13 0-22.5-9t-9.5-21v-196h56v-234h148v234h56v196zm210 220q140-140 140-340 0-197-140-339-139-141-340-141-198 0-339 141t-141 339q0 200 141 340 142 140 339 140 200 0 340-140zm-340-732q162 0 277 115t115 277q0 164-115 278-116 114-277 114t-277-114q-115-114-115-278 0-162 115-277t277-115z"/><glyph glyph-name="glyph226" unicode="" horiz-adv-x="990" d="M835 690q140-140 140-340 0-197-140-339-139-141-340-141-198 0-339 141t-141 339q0 200 141 340 142 140 339 140 200 0 340-140zm-334-476q25 0 42.5 12.5t17.5 35.5q0 18-14 30-48 20-102 46-64 26-178.5 78t-141.5 64q-22-60-22-130 0-162 115-277t277-115q115 0 205.5 58t138.5 146l-178 80q-7-44-45-74t-87-34v-74h-56v74q-79 0-146 58l66 66q50-44 108-44zm130 144l242-108q14 45 14 100 0 164-115 278-116 114-277 114-107 0-191.5-50t-136.5-128l182-82q12 37 46 62 31 22 78 24v74h56v-74q69-5 120-44l-62-64q-43 28-84 28-56 0-56-38 0-8 4-12l60-28q20-8 60-26t60-26z"/><glyph glyph-name="glyph227" unicode="" horiz-adv-x="990" d="M835 690q140-140 140-340 0-197-140-339-139-141-340-141-198 0-339 141t-141 339q0 200 141 340 142 140 339 140 200 0 340-140zm-550-348q0 2 1 12t1 12h-46v56h10l-126 56q-22-60-22-128 0-162 115-277t277-115q116 0 205.5 57.5t138.5 146.5l-246 108h-174q11-39 26-56 37-40 104-40 44 0 92 20l18-90q-55-30-124-30-128 0-196 92-34 42-46 104h-52v58h44v14zm328 24l262-116q12 48 12 100 0 164-115 278-116 114-277 114-107 0-193-50t-137-128l158-70q6 11 28 38 72 82 184 82 69 0 122-24l-24-92q-42 20-88 20-64 0-100-44-10-10-16-28l56-24h136v-56h-8z"/><glyph glyph-name="glyph228" unicode="" horiz-adv-x="990" d="M835 690q140-140 140-340 0-197-140-339-139-141-340-141-198 0-339 141t-141 339q0 200 141 340 142 140 339 140 200 0 340-140zm-714-224q-18-54-18-116 0-162 115-277t277-115q111 0 199 54t137 138l-152 68v-68h-126v-108h-118v108h-124v74h124v36l-12 24h-112v74h54zm544-242l-106 48-6-12v-36h112zm14 100l192-86q16 57 16 112 0 164-115 278-116 114-277 114-110 0-197-53t-137-135l158-70-54 98h128l76-166 46-20 82 186h128l-122-224h76v-34z"/><glyph glyph-name="glyph229" unicode="" horiz-adv-x="990" d="M739 344q0 115-67 187.5t-179 72.5q-88 0-143.5-51t-68.5-135h-36l94-94 96 94h-36q12 86 108 86 57 0 83.5-42.5t26.5-113.5q0-69-28.5-114.5t-83.5-45.5q-100 0-106 86h-120q12-90 70-138 62-50 142-50 106 0 180 74 68 74 68 184zm96 346q140-140 140-340 0-197-140-339-139-141-340-141-198 0-339 141t-141 339q0 200 141 340 142 140 339 140 200 0 340-140zm-340-732q162 0 277 115t115 277q0 164-115 278-116 114-277 114t-277-114q-115-114-115-278 0-162 115-277t277-115z"/><glyph glyph-name="glyph230" unicode="" horiz-adv-x="990" d="M321 382h348v82h-348v-82zm0-154h348v82h-348v-82zm514 462q140-140 140-340 0-197-140-339-139-141-340-141-198 0-339 141t-141 339q0 200 141 340 142 140 339 140 200 0 340-140zm-340-732q162 0 277 115t115 277q0 164-115 278-116 114-277 114t-277-114q-115-114-115-278 0-162 115-277t277-115z"/><glyph glyph-name="glyph231" unicode="" horiz-adv-x="990" d="M835 690q140-140 140-340 0-197-140-339-139-141-340-141-198 0-339 141t-141 339q0 200 141 340 142 140 339 140 200 0 340-140zm-316-478q38 0 70 32l70-84q-14-6-18-16-61-42-136-42-86 0-159 58t-73 188q0 32 6 62l-154 68q-22-60-22-128 0-162 115-277t277-115q116 0 205.5 57.5t138.5 146.5l-424 188q1-52 28-96 25-42 76-42zm-84 232l440-194q12 48 12 100 0 164-115 278-116 114-277 114-107 0-193-50t-137-128l148-66q65 102 196 102 89 0 150-54l-78-80q-28 28-66 28-51 0-80-50z"/><glyph glyph-name="glyph232" unicode="" horiz-adv-x="990" d="M495 628q-108 0-153-81t-45-197q0-114 45-195t153-81 153 81 45 195q0 116-45 197t-153 81zm-86-278q0 174 86 174 7 0 18-4 19-18 6-42l-106-194q-4 43-4 66zm86-172q-2 0-9.5 1t-8.5 1q0 2-2 2-4 0-6 2-34 16-12 46l118 204q6-44 6-84 0-172-86-172zm340 512q140-140 140-340 0-197-140-339-139-141-340-141-198 0-339 141t-141 339q0 200 141 340 142 140 339 140 200 0 340-140zm-340-732q162 0 277 115t115 277q0 164-115 278-116 114-277 114t-277-114q-115-114-115-278 0-162 115-277t277-115z"/><glyph glyph-name="glyph233" unicode="" horiz-adv-x="990" d="M719 462q0 10-8.5 18t-19.5 8h-104v104q0 11-8 19.5t-18 8.5h-264q-24-8-24-28v-352q0-11 8-19.5t18-8.5h104v-104q0-10 8.5-18t19.5-8h260q11 0 19.5 8t8.5 18v354zm-292 26q-24-9-24-26v-196h-78v300h210v-78h-108zm238-354h-210v302h210v-302zm170 556q140-140 140-340 0-197-140-339-139-141-340-141-198 0-339 141t-141 339q0 200 141 340 142 140 339 140 200 0 340-140zm-340-732q162 0 277 115t115 277q0 164-115 278-116 114-277 114t-277-114q-115-114-115-278 0-162 115-277t277-115z"/><glyph glyph-name="glyph234" unicode="" horiz-adv-x="990" d="M819 338q-36 14-106 44v118l-294 122-130-56v-136l2-2-116-48v-122l124-54 124 52q49-21 141-59t119-49l6-2q40 18 120 52l10 4v136zm-146-154l-2 2v-2l-220 92v86l220-90v-2h2v-86zm14 112l-70 30 76 32 72-30zm102-74l-86-36v84l86 36v-84zm46 468q140-140 140-340 0-197-140-339-139-141-340-141-198 0-339 141t-141 339q0 200 141 340 142 140 339 140 200 0 340-140zm-340-732q162 0 277 115t115 277q0 164-115 278-116 114-277 114t-277-114q-115-114-115-278 0-162 115-277t277-115z"/><glyph glyph-name="glyph235" unicode="" horiz-adv-x="950" d="M635 286q28 0 46-27.5t18-62.5-18-62.5-46-27.5q-30 0-48 27.5t-18 62.5 18 62.5 48 27.5zm-160-326q-8 0-43.5 1t-42.5 1q-110 0-180 29-37 15-74.5 44.5t-59.5 61.5q-60 84-60 229 0 114 74 194-8 5-1 80t33 140q93-11 228-104 47 12 126 12 84 0 126-12 63 43 119 68 57 25 83 30l26 6q26-65 33-140t-1-80q74-80 74-194 0-203-124-294-37-26-67-39.5t-76-21.5q-53-9-107-9-7 0-42.5-1t-43.5-1zm2 396h-4q-21 0-85 4.5t-78 4.5q-77 3-119-35-52-46-52-120 0-124 84-164 83-40 250-40h4q167 0 251 40 85 40 85 164 0 55-34 99.5t-85 52.5q-37 6-113 0-77-6-104-6zm-160-70q28 0 46-27.5t18-62.5-18-62.5-46-27.5q-30 0-48 27.5t-18 62.5 18 62.5 48 27.5z"/><glyph glyph-name="glyph236" unicode="" horiz-adv-x="990" d="M578 358q-9 0-41-2t-42-2-42 2-41 2q-38 0-61-18-26-26-26-60 0-65 43-84 45-20 127-20t127 20q43 19 43 84 0 34-26 60-23 18-61 18zm-131-86q0-17-9-31.5t-23-14.5-23 14.5-9 31.5q0 46 32 46t32-46zm162 0q0-17-10-31.5t-24-14.5-23 14.5-9 31.5q0 46 32 46 15 0 24.5-14t9.5-32zm226 418q140-140 140-340 0-197-140-339-139-141-340-141-198 0-339 141t-141 339q0 200 141 340 142 140 339 140 200 0 340-140zm-296-536q188 0 188 184 0 55-38 98 4 4 1 41-3 35-17 71-44-6-114-52-19 6-64 6-40 0-64-6-52 34-100 50l-14 2q-14-36-17-71-3-37 1-41-38-43-38-98 0-184 188-184h88z"/><glyph glyph-name="glyph237" unicode="" horiz-adv-x="930" d="M211 550q82 0 139-58.5t57-141.5-58-141q-59-59-138-59t-138 59q-58 58-58 141t57 141.5 139 58.5zm508-400q-79 0-138 59-58 58-58 141t57 141.5 139 58.5 139-58.5 57-141.5-58-141q-59-59-138-59z"/><glyph glyph-name="glyph238" unicode="" horiz-adv-x="990" d="M835 690q140-140 140-340 0-197-140-339-139-141-340-141-198 0-339 141t-141 339q0 200 141 340 142 140 339 140 200 0 340-140zm-468-440q40 0 70 30t30 70q0 41-30 71.5t-70 30.5-70-30.5-30-71.5q0-40 30-70t70-30zm256 0q41 0 70.5 29.5t29.5 70.5q0 42-29 72t-71 30q-40 0-69-30.5t-29-71.5q0-40 29-70t69-30z"/><glyph glyph-name="glyph239" unicode="" horiz-adv-x="931" d="M911 558q-31-186-171-351-141-167-245-237-33-19-61.5-19.5t-54.5 16.5-44.5 39-29.5 46q-14 28-78.5 238.5t-73.5 223.5q-27 20-82-16l-20-14-36 50q6 6 21 23.5t25 28.5q31 35 100 89 71 56 124 67 58 12 89-42 25-40 38-130 21-126 25-142 28-106 38-134 11-28 18-39 8-11 18-11 41 0 126 166 42 76 6 124t-112 2q23 127 140 188 104 54 182 8 80-47 58-174z"/><glyph glyph-name="glyph240" unicode="" horiz-adv-x="990" d="M835 690q140-140 140-340 0-197-140-339-139-141-340-141-198 0-339 141t-141 339q0 200 141 340 142 140 339 140 200 0 340-140zm-120-246q13 82-48 94-61 14-110-40-28-28-34-66 38 24 56-1t-2-63q-43-84-64-84-14 0-36 94-2 8-5 24t-6.5 35-4.5 26q-3 16-7 27t-11 24.5-18 19-26 2.5q-26-6-59.5-31.5t-56.5-50.5l-20-24 18-24q7 7 27 17t25-1q5-7 37-113.5t39-120.5q35-71 96-42 53 35 124 120 69 83 86 178z"/><glyph glyph-name="glyph241" unicode="" horiz-adv-x="950" d="M935 636q-37-56-94-98v-24q0-130-60-250-60-121-186-203-127-83-290-83-159 0-290 84 18-2 46-2 131 0 234 80-64 2-111.5 39t-64.5 93q9-4 34-4 26 0 50 6-63 13-106.5 64.5t-43.5 121.5v2q36-20 84-24-84 58-84 158 0 47 26 94 155-189 390-196-6 18-6 42 0 78 55.5 133t134.5 55q82 0 136-58 58 12 120 44-19-66-82-104 55 8 108 30z"/><glyph glyph-name="glyph242" unicode="" horiz-adv-x="990" d="M835 690q140-140 140-340 0-197-140-339-139-141-340-141-198 0-339 141t-141 339q0 200 141 340 142 140 339 140 200 0 340-140zm-144-252q29 22 46 48-33-13-54-14 30 18 42 52-29-16-60-22-28 28-70 28-39 0-66.5-28t-27.5-66q0-2 1-11t1-11q-121 6-194 100-14-25-14-48 0-49 44-78-26 0-44 12v-2q0-35 22-61t54-31q-15-4-24-4-10 0-18 2 19-66 88-66-49-40-118-40h-22q67-42 144-42 122 0 196 83t74 187v12z"/><glyph glyph-name="glyph243" unicode="" horiz-adv-x="530" d="M515 644h-142q-16 0-26-16.5t-10-35.5v-102h178v-148h-178v-442h-170v442h-152v148h152v86q0 92 58.5 158t147.5 66h142v-156z"/><glyph glyph-name="glyph244" unicode="" horiz-adv-x="990" d="M835 690q140-140 140-340 0-197-140-339-139-141-340-141t-340 141q-140 142-140 339 0 200 140 340t340 140 340-140zm-226-190v78h-72q-44 0-74-33.5t-30-80.5v-44h-76v-74h76v-222h86v222h90v74h-90v52q0 28 18 28h72z"/><glyph glyph-name="glyph245" unicode="" horiz-adv-x="890" d="M767 770q44 0 76-31.5t32-74.5v-646q0-44-32.5-76t-75.5-32h-162v310h114v134h-114v70q0 30 28 30h86v152h-96q-74 0-124-54.5t-50-131.5v-66h-104v-134h104v-310h-326q-43 0-75.5 32t-32.5 76v646q0 43 32 74.5t76 31.5h644z"/><glyph glyph-name="glyph246" unicode="" horiz-adv-x="926" d="M291 282q-32 45-32 86l2 14h-14q-63 0-110 30-74 44-74 160 0 53 23.5 98.5t57.5 68.5q75 51 151 51h230v-4q0-22-78-36-27 0-38-6 39-20 53.5-54.5t14.5-97.5q0-102-68-158-38-38-38-54 0-17 50-64 104-90 104-178 0-140-116-194-67-34-150-34h-4l-4 2q-2-2-4-2-57 0-129 26-47 16-75 58t-28 102 32 101 83 57q89 28 159 28h2zm-20-46q-59-2-109.5-43t-46.5-97q4-54 58-82t119.5-22 103.5 40q41 37 37 88-4 54-44 85t-102 31h-16zm-20 492q-10 0-20-2-40-12-58-62-15-59-1-109t46-82q33-33 71-33 10 0 18 2 42 12 63 66t3 112q-30 108-122 108zm510-282h150v-94h-150v-150h-94v150h-150v94h150v150h94v-150z"/><glyph glyph-name="glyph247" unicode="" horiz-adv-x="990" d="M449 486q8-30-1-57t-31-33h-10q-42 0-60 60-6 29 2 54 12 32 40 32 43 0 60-56zm386 204q140-140 140-340 0-197-140-339-139-141-340-141-198 0-339 141t-141 339q0 200 141 340 142 140 339 140 200 0 340-140zm-450-562h8q41 0 74 16 60 30 60 98 0 44-52 92-26 23-26 32 0 12 20 26 34 34 34 80 0 58-36 78 4 4 20 4 40 4 40 16v4h-116q-28 0-45-7.5t-41-28.5q-32-29-32-76 0-44 25-70t69-26h6q-4-23 16-50h-2q-138 0-138-94 0-41 28-63 22-18 40-24.5t48-6.5zm336 272h-76v76h-48v-76h-76v-48h76v-76h48v76h76v48zm-314-106q30 0 51-16.5t23-43.5q2-28-20.5-45t-53.5-19q-33-4-59.5 10.5t-28.5 41.5q0 30 23 49.5t57 22.5h8z"/><glyph glyph-name="glyph248" unicode="" horiz-adv-x="808" d="M335 190q-24-124-58-211-31-81-96-129-10 120-5 167 2 28 9 63 18 96 48 203 17 59 24 99-24 51-19 116 5 61 47 105t100 21q72-28 31-154-27-85-32-103-15-50-4-90 10-38 63-49 72-15 123.5 39.5t71.5 129.5q21 81 11 163-11 85-54 128-61 64-151 70-96 6-168-35.5t-115-114.5q-46-77-32-170 5-23 22-52 21-36 22-51.5t-18-62.5q-146 35-140 230 5 138 105 234 100 95 233 112 164 18 290-57t144-219q26-176-66-317-91-141-252-129-23 2-42 9t-30 13.5-31 20.5q-23 16-31 21z"/><glyph glyph-name="glyph249" unicode="" horiz-adv-x="990" d="M835 690q140-140 140-340 0-197-140-339-139-141-340-141t-340 141q-140 142-140 339 0 200 140 340t340 140 340-140zm-308-452q82-7 128 64t34 162q-11 73-74 110-66 38-146 28-65-7-117-56-52-48-53-118-4-99 70-116 9 23 9 31.5t-10 25.5q-10 16-11 27-13 96 78 144 92 48 158-18 48-48 20-148-28-99-98-86-41 8-33 54 7 45 24 86 16 40-21 60-42 18-65-33-23-52 1-89-5-24-21-83-16-63-18-87-1-12 1-98 52 37 78 172 47-31 66-32z"/><glyph glyph-name="glyph250" unicode="" horiz-adv-x="590" d="M575-58q-97-52-208-52-59 0-110 16-51 19-82 46-35 30-46 64-14 31-14 96v322h-100v130q107 36 154 130 24 53 30 116h130v-232h216v-144h-216v-236q0-83 8-102 11-25 32-36 29-20 68-20 68 0 138 46v-144z"/><glyph glyph-name="glyph251" unicode="" horiz-adv-x="990" d="M835 690q140-140 140-340 0-197-140-339-139-141-340-141-198 0-339 141t-141 339q0 200 141 340 142 140 339 140 200 0 340-140zm-210-546v74q-36-24-70-24-17 0-36 10-13 8-14 18-6 12-6 52v118h110v74h-110v118h-64q-8-44-16.5-62.5t-31.5-37.5q-24-19-46-26v-66h50v-162q0-52 32-80 13-13 40-24 34-8 56-8 57 0 106 26z"/><glyph glyph-name="glyph252" unicode="" horiz-adv-x="930" d="M219 698q0-42-30-69t-74-27q-42 0-71 27.5t-29 68.5q0 43 28.5 69.5t73.5 26.5 72.5-26.5 29.5-69.5zm-198-172h192v-618h-192v618zm306-198q0 98-4 198h166l10-86h4q60 100 190 100 108 0 165-72t57-194v-366h-192v342q0 134-98 134-69 0-98-72-6-12-6-48v-356h-194v420z"/><glyph glyph-name="glyph253" unicode="" horiz-adv-x="990" d="M835 690q140-140 140-340 0-197-140-339-139-141-340-141-198 0-339 141t-141 339q0 200 141 340 142 140 339 140 200 0 340-140zm-458-226h-96v-312h96v312zm-48 136q-21 0-36.5-14t-15.5-34q0-48 52-48t52 48-52 48zm404-448v184q0 61-29 98.5t-83 37.5q-66 0-96-50h-2l-6 42h-84q2-38 2-100v-212h98v180q0 19 4 24 12 38 50 38 48 0 48-68v-174h98z"/><glyph glyph-name="glyph254" unicode="" horiz-adv-x="950" d="M453 480q-48 85-122 193-19 29-24 33-80-39-137.5-111t-78.5-163q182 0 362 48zm64-128q-11 31-32 68-183-56-402-56v-14q0-150 100-262 9 15 13 21 42 62 103 119 37 35 94 68.5t110 51.5q7 4 14 4zm-284-310l-8 6q6-6 8-6zm148 690zm354-86q-115 98-260 98-49 0-92-12 79-104 146-228 139 53 204 140zm-585-621q-135 135-135 325t135 325 325 135 325-135 135-325-135-325-325-135-325 135zm393 261q-216-74-308-242l-2-2q109-84 242-84 76 0 154 32-24 141-84 298zm42 102l10-20q110 13 230-6 35-6 42-8 0 139-88 246l-8-10q-18-23-68-63-64-50-144-83 14-28 26-56zm34-82q52-146 76-280 139 91 168 262-5 3-39 11-104 24-205 7z"/><glyph glyph-name="glyph255" unicode="" horiz-adv-x="990" d="M509 352q-44-14-82-44-55-44-80-86-48 58-48 128v4q107 0 200 28l14-28zm14 80q-24 44-70 110 12 4 42 4 73 0 128-46-32-42-100-68zm6-116q34-89 40-146-35-16-74-16-69 0-118 42 41 80 152 120zm-224 78q18 92 104 134 34-43 72-110-91-24-176-24zm304-66q33 0 80-10-16-82-82-128-6 57-36 136 16 2 38 2zm226 362q140-140 140-340 0-197-140-339-139-141-340-141-198 0-339 141t-141 339q0 200 141 340 142 140 339 140 200 0 340-140zm-173-505q69 69 69 165 0 98-69 167t-167 69q-99 0-166-69-68-70-68-167 0-95 68-165 67-69 166-69 98 0 167 69zm-121 213q73 29 108 74 42-52 42-116-51 8-90 8-26 0-44-2-2 2-2 4 0 4-2 4-6 10-12 28z"/><glyph glyph-name="glyph256" unicode="" d="M239 142q19 0 35.5 16t16.5 36v314q0 92 66 157 67 65 158 65t158-65q66-65 66-157v-60l-102-34-70 34v60q0 22-15 37t-37 15q-20 0-36-15.5t-16-36.5v-314q0-92-66-158t-158-66-158 66-66 158v132h172v-132q0-20 16.5-36t35.5-16zm606 184h170v-132q0-92-66-158t-158-66-158 66-66 158v134l70-32 102 32v-134q0-20 16.5-36t35.5-16q22 0 38 15t16 37v132z"/><glyph glyph-name="glyph257" unicode="" horiz-adv-x="990" d="M834 690q141-140 141-340 0-198-141-339t-339-141q-201 0-340 141-140 142-140 339 0 200 140 340t340 140q197 0 339-140zm-479-526q46 0 79 33t33 79v160q0 26 28 26 26 0 26-26v-30l34-18 52 18v30q0 46-33 79t-79 33-80-33-34-79v-160q0-26-26-26t-26 26v68h-88v-68q0-46 34-79t80-33zm392 112v68h-86v-68q0-26-26-26-28 0-28 26v68l-52-16-34 16v-68q0-46 33.5-79t80.5-33q46 0 79 33t33 79z"/><glyph glyph-name="glyph258" unicode="" d="M409 222l34-100q-64-52-168-52-107 0-183 73-77 74-77 199 0 129 80 209 79 79 188 79 111 0 167-45 55-44 91-159l36-116q48-146 202-146 120 0 120 60 0 54-78 72l-78 18q-134 35-134 152 0 89 58 126 59 38 146 38 184 0 198-146l-114-14q-7 70-90 70-82 0-82-62 0-50 66-66l74-16q150-36 150-166 0-160-238-160-136 0-204 53-69 53-100 149l-36 116q-4 10-9 25.5t-7.5 22.5-7 17-10 18.5-13.5 19.5q-32 43-103 43-64 0-113-46t-49-142q0-81 46-130 47-50 110-50 60 0 128 56z"/><glyph glyph-name="glyph259" unicode="" horiz-adv-x="990" d="M834 690q141-140 141-340 0-198-141-339t-339-141q-201 0-340 141-140 142-140 339 0 200 140 340t340 140q197 0 339-140zm-207-480q120 0 120 80 0 66-76 84l-38 8q-32 8-32 34 0 30 40 30 45 0 46-34l58 6q-6 74-100 74-102 0-102-84 0-60 66-76l40-8q40-10 40-36 0-32-62-32-76 0-100 74l-20 58q-18 58-45 81-28 23-85 23-55 0-95-40-41-41-41-106 0-59 37.5-97.5t94.5-38.5q54 0 86 26l-18 50q-28-28-66-28-34 0-56 26.5t-22 63.5q0 43 22 69.5t60 26.5q34 0 49-18t27-56l18-58q31-102 154-102z"/><glyph glyph-name="glyph260" unicode="" horiz-adv-x="951" d="M781 402q4-28 4-52 0-159-113-275-112-115-273-115-159 0-271 115-113 116-113 275 0 163 112 276 113 114 272 114 54 0 90-10v-222q-77 26-154-10-70-34-101-101-31-66-5-129 25-59 95-79 69-19 139 15 52 26 87 80t35 122v286q15-7 24-14 174-108 310-114 33-2 4-52-42-76-130-106l-12-4z"/><glyph glyph-name="glyph261" unicode="" horiz-adv-x="990" d="M834 690q141-140 141-340 0-198-141-339t-339-141q-201 0-340 141-140 142-140 339 0 200 140 340t340 140q197 0 339-140zm-169-314q53 16 72 60 12 22-4 22-73 5-156 58-1 1-6 4t-6 4v-146q0-74-62-100-36-18-70.5-8.5t-47.5 40.5q-16 35 3.5 67.5t50.5 46.5q36 20 78 6v112q-23 6-46 6-80 0-137-58t-57-140q0-80 57-138t137-58 138 58 58 138q0 3-1 13t-1 13z"/><glyph glyph-name="glyph262" unicode="" horiz-adv-x="910" d="M766 661q129-129 129-311 0-116-53-210t-137-152q-101 170-310 176-162 6-272-104-108 124-108 290 0 184 128 312t312 128q182 0 311-129zm-105-429q-172 106-422 48-26-8-20-32 6-27 32-22 228 54 382-40 23-14 36 8 16 22-8 38zm50 134q-102 62-235 77-137 15-251-19-31-10-24-44 12-32 42-22 115 32 233.5 16.5t200.5-66.5q28-19 46 10 18 30-12 48zm72 96q19 34-14 56-117 69-288 82-173 14-282-24-13-4-21.5-18.5t-4.5-31.5q11-38 50-28 93 34 249 22 154-12 255-72 34-19 56 14zm-392-428q119-6 172-110-67-14-108-14-113 0-214 56 59 72 150 68z"/><glyph glyph-name="glyph263" unicode="" horiz-adv-x="990" d="M834 690q141-140 141-340 0-126-58.5-229t-149.5-165q-108 186-338 192-176 6-296-114-118 137-118 316 0 200 140 340t340 140q197 0 339-140zm-115-470q-188 114-460 54-30-7-22-36 7-30 36-22 245 58 416-46 26-14 40 10 14 26-10 40zm56 146q-103 64-245 83.5t-287-19.5q-34-10-24-46 10-33 46-26 111 34 244 19t228-73q32-20 50 12 18 34-12 50zm78 106q20 38-16 62-127 74-314 89t-306-27q-16-3-26.5-19.5t-3.5-34.5q6-17 21-26.5t35-3.5q103 36 271 23 171-14 277-77 38-24 62 14zm-426-468q131-5 186-118-58-16-118-16-125 0-234 62 66 73 166 72z"/><glyph glyph-name="glyph264" unicode="" horiz-adv-x="952" d="M827 200q28-21 37-49.5t-11-64.5q-109-154-298-187-187-33-344 77-26 18-38 30 153-49 276-7 115 38 181 100 43 41 53 52 18 20 28 35 19 29 52 33t64-19zm-612 30q16-36 .5-64t-46.5-42q-37-17-67-6.5t-43 40.5q-80 173-14 352 66 181 238 260 19 8 44 16-85-77-123-170-39-95-32-178 6-76 15-120.5t28-87.5zm614 416q122-147 106-336-6-39-8-48-18 83-63 156t-102 116q-40 30-97.5 57.5t-104.5 37.5q-13 3-34 5.5t-31.5 4.5-23.5 9-22 19q-19 29-15.5 65t25.5 58 58 20q190-18 312-164zm-508-322q17 39 34 46v6q0 11 8 24v2q0 6 2 12 4 50 33.5 82t78.5 32q48 0 78-32.5t32-81.5q2-6 2-12v-2q8-8 8-24v-6q17-7 34-46 25-54 6-66-12-6-30 22-6-28-30-46 26-11 26-26 0-16-19.5-24t-42.5-8q-52 0-60 26h-8q-12-26-62-26-23 0-42.5 8t-19.5 24q0 15 26 26-24 19-30 46-18-28-28-22-22 10 4 66z"/><glyph glyph-name="glyph265" unicode="" horiz-adv-x="890" d="M149-80q-55 0-94.5 40t-39.5 96v344h174q-4-28-4-50 0-107 76-183 77-77 184-77 106 0 183 77t77 183q0 26-6 50h176v-344q0-56-39.5-96t-94.5-40h-592zm592 860q55 0 94.5-39t39.5-95v-146h-218q-78 110-212 110-138 0-212-110h-218v146q0 56 39.5 95t94.5 39h592zm-56-166q0-9 7.5-16.5t16.5-7.5h72q24 0 24 24v72q0 24-24 24h-72q-24 0-24-24v-72zm-80-264q0-65-47.5-112.5t-112.5-47.5-112.5 47.5-47.5 112.5q0 67 47 113.5t113 46.5 113-46.5 47-113.5z"/><glyph glyph-name="glyph266" unicode="" horiz-adv-x="990" d="M301 806l194-158-284-184-196 164zm380-752l116 78v-46l-302-190-302 190v46l118-78q6-2 12-2 10 0 14 4l158 132 160-132q4-4 14-4 6 0 12 2zm294 574l-194-164-286 184 196 158zm-480-342l286 178 174-140-282-184zm-176-146l-282 184 174 140 284-178-176-146z"/><glyph glyph-name="glyph267" unicode="" horiz-adv-x="796" d="M677 700q31 0 59.5-18t28.5-46q0-1 .5-9t2-26.5 2.5-37.5q14-188 8-315-5-106-19.5-176.5t-50.5-120.5q-38-51-91-51-153 0-194 26-26 20-18 130 1 39 37 59 34 19 69 19l34-2-4-70q-16-2-38-2-19 0-24-26-4-37 40-42l86 4q38 5 28 136-4 30-52 39-69 10-96 17-45 13-73 65-9 17-11 17t-8-58-30-58q-45 0-139 15-95 15-115 35-33 34-62 149-28 113-28 151 0 34 58 30h116q78 0 78 72 0 8-1 55.5t-1 56.5q0 82 40 82 89 0 120-14 16-7 28-24t14-36l4-14zm-10-334q-8 28-29.5 53t-48.5 25q-26 0-44-21.5t-22-47.5q-5-23 0-29 5-4 9.5-5t7.5-.5 11 2.5 13 3q17 4 31 4 17 0 59-16 10-4 15 0 6 6-2 32zm-480 276q0-22-28-22h-144l176 172q-4-123-4-150z"/><glyph glyph-name="glyph268" unicode="" horiz-adv-x="830" d="M195 214l-180-180v414q0 302 278 302h442l-312-310q-6-6-10-6-8 0-12 10v128q-94 0-112-2-94-16-94-146v-210zm440 274l180 180v-414q0-304-278-304h-440l312 312q1 6 8 6 8 0 12-10v-128q94 0 112 2 94 16 94 146v210z"/><glyph glyph-name="glyph269" unicode="" horiz-adv-x="950" d="M935 132q0-108-75-185t-179-77q-61 0-120 32-56-8-80-8-182 0-311 132t-129 320q0 46 10 90-36 60-36 134 0 107 74 184 73 76 180 76 75 0 136-40 34 8 76 8 183 0 310-132 128-133 128-320 0-49-10-96 26-60 26-118zm-230-2q30 46 30 100 0 45-16 80-17 31-50 54-37 23-76 36-74 21-96 26-97 14-122 50-10 10-10 26 0 24 28 42 26 20 76 20t74-18q27-24 38-50 18-28 26-36 17-12 38-12 26 0 45 19t19 45q0 19-14 52-17 24-42 48-27 21-74 38-50 14-102 14-74 0-128-22-52-19-84-57t-32-95q0-53 28-90 33-39 76-56 48-22 116-36 9-2 80-20 29-10 46-28 18-14 18-42 0-38-37-59t-85-21q-72 0-100 40-25 45-26 46-7 23-24 40-20 14-40 14-26 0-45-17.5t-19-42.5q0-45 30-85t70-63q64-34 158-34 78 0 138 24 60 28 88 70z"/><glyph glyph-name="glyph270" unicode="" horiz-adv-x="990" d="M563 276q0-21-20-32.5t-48-11.5q-19 0-36 6-24 13-34 42-6 17-14 22-8 8-22 8-13 0-26-10-10-10-10-24 0-21 16-46 42-56 128-56 39 0 78 14 36 18 48 40 18 24 18 56 0 27-9.5 45.5t-29.5 29.5-37 17-47 13.5-45 12.5q-5 2-11.5 4t-8.5 3-5.5 3.5-8.5 7.5q-6 6-6 16 0 15 18 24.5t40 9.5q32 0 42-10 12-10 22-28 6-12 14-20 11-6 22-6 14 0 24 10t10 24-6 30q-5 9-24 28-21 15-42 20-24 8-56 8-86 0-120-46-18-22-18-50 0-30 16-52 20-20 42-32 49-17 89-25 33-7 47-21 10-7 10-24zm272 414q140-140 140-340 0-197-140-339-139-141-340-141-198 0-339 141t-141 339q0 200 141 340 142 140 339 140 200 0 340-140zm-224-608q58 0 100 43.5t42 102.5q0 35-16 66 6 28 6 54 0 104-72 178t-174 74q-24 0-42-2-34 22-74 22-59 0-101.5-43.5t-42.5-102.5q0-39 20-76-4-15-4-50 0-104 72-178t172-74q34 0 46 4 30-18 68-18z"/><glyph glyph-name="glyph271" unicode="" horiz-adv-x="950" d="M399 516q-1-149-77-274-74-123-197-184-110 131-110 296 0 170 110 298 109 127 274 156v-292zm298-566q-103-56-222-56t-220 56q178 114 220 288 42-174 222-288zm-146 568v290q165-29 274-156 110-128 110-298 0-168-108-296-119 58-197.5 181t-78.5 279z"/><glyph glyph-name="glyph272" unicode="" horiz-adv-x="1026" d="M865 212q0-103-127-197-128-95-313-95-161 0-285 78-125 78-125 196 0 129 146 280 91 92 186 129 88 35 130 1t14-120q-5-14 8-14l16 2q72 34 134 34 61 0 84-34.5t-2-99.5q-6-18 16-24 118-37 118-136zm-238-141q80 65 72 145-11 80-100 128-90 48-212 36t-202-77q-81-65-70-145 8-80 98-128t212-36 202 77zm84 639q-16 0-26 10t-10 26q0 34 36 34 123 0 212-87 88-87 88-211v-2q0-14-11-24t-25-10-24 10-10 24q0 95-68 163-67 67-162 67zm160-224q4-15-4.5-27.5t-21.5-14.5q-34-4-42 28-8 38-36.5 66t-65.5 36q-34 7-26 40 7 36 42 28 57-12 99.5-55t54.5-101zm-528-210q48 10 88-12.5t48-61.5q10-39-19-77-28-37-79-45-35-7-67.5 3.5t-50 33-20.5 52.5 22 61q28 35 78 46z"/><glyph glyph-name="glyph273" unicode="" horiz-adv-x="889" d="M786 610q88-43 88-162 0-130-110-210-107-80-306-80h-30q-17 0-32.5-12.5t-19.5-27.5l-36-156q-12-42-52-42h-106q-17 0-27.5 12.5t-6.5 29.5l6 24h68q17 0 32.5 13.5t19.5 28.5l36 156q10 40 52 40h30q196 0 306 80 110 83 110 210 0 56-22 96zm-580-516q-2-15-18-28.5t-32-13.5h-108q-17 0-26.5 12.5t-5.5 29.5l150 646q10 40 52 40h224q75 0 126-8 58-13 94-34 35-23 58-62 20-38 20-96 0-130-110-210-107-80-304-80h-32q-16 0-32-12.5t-18-27.5zm88 374q-4-16 6.5-28t25.5-12h28q86 0 134 36 48 34 48 98 0 47-32 65.5t-92 18.5h-34q-42 0-52-40l-32-138z"/><glyph glyph-name="glyph274" unicode="" horiz-adv-x="950" d="M423 616l-396-362q-12 48-12 96 0 138 70.5 246t179.5 164q14-16 158-144zm242-124l-328 296q63 22 138 22 100 0 190-40v-278zm70 238q88-60 144-159t56-221q0-79-26-152h-174v532zm-620-490l102 92v-362q-115 80-168 210 12 12 66 60zm172-310v198h590q-53-96-147.5-161t-212.5-77h-84q-86 11-146 40z"/><glyph glyph-name="glyph275" unicode="" d="M49 178q0-4-10-4-6 0-10 4l-14 70 14 72q4 4 10 4 10 0 10-4l16-72zm102-38q0-8-12-8t-12 8l-12 108 12 166q0 8 12 8t12-8l14-166zm102 2q0-10-14-10t-14 8l-10 108 10 222q0 10 14 10t14-10l12-222zm102 0q0-10-16-10t-16 10l-8 106 8 224q0 10 16 10t16-10l10-224zm102 2q0-12-18-12-17 0-18 12l-6 104 6 256q5 14 18 14 18 0 18-14l8-256zm72-12q-14 0-14 14v396q0 10 12 14 37 14 84 14 88 0 153-58.5t73-141.5q23 10 50 10 51 0 89.5-37t38.5-87q0-52-38-89t-90-37l-358 2z"/><glyph glyph-name="glyph276" unicode="" horiz-adv-x="1028" d="M173 89q-136 101-155 255-23 170 108 308 131 139 336 164 207 26 366-77 130-84 170-214.5t-23-302.5q-49-126-165-225t-270-117v108h-48q-183 0-319 101zm625 119v276q0 35-10 52-8 19-30 38-18 13-44 20-28 6-56 6-70 0-116-46-9 15-36 32-31 14-70 14-66 0-110-38v30h-88v-384h92v236q0 19 14.5 39.5t31.5 26.5q19 10 40 10 25 0 46-16 12-26 12-48v-248h90v236q0 36 22 54 22 22 62 22 20 0 32-6 10-1 16-12 8-8 8-18 4-17 4-28v-248h90z"/><glyph glyph-name="glyph277" unicode="" d="M337 680q81 0 128.5-45.5t47.5-126.5q0-42-20-76.5t-50-41.5l-24-4q57 0 85-40 30-42 31-80v-40q0-52-19-93.5t-51-60.5q-53-32-108-38h-342v646h322zm-10-258q31 0 42.5 18t11.5 58q0 24-9 43.5t-25 22.5l-10 2h-180v-144h170zm76-188q0 40-16 62-17 23-32 24l-18 2h-180v-172h172q74 0 74 84zm394 282q65 0 114.5-27.5t70.5-71.5q38-82 33-151l-2-30h-320q0-54 27-82t55-28l26-2q45 0 71 17t27 33l2 18h108q0-82-53-124-53-43-105-44l-54-2q-66 0-118 23.5t-76 63.5q-44 72-44 133v26q0 37 15 87t39 79.5 69 54.5q50 27 115 27zm98-194q0 32-20 65-9 15-30 25t-44 10q-42 0-70-25t-34-51l-6-24h204zm26 320v-78h-256v78h256z"/></font>
</defs>
</svg>
