<?xml version="1.0" encoding="utf-8"?>
<!-- Generator: Adobe Illustrator 16.0.0, SVG Export Plug-In . SVG Version: 6.00 Build 0)  -->
<!DOCTYPE svg PUBLIC "-//W3C//DTD SVG 1.1//EN" "http://www.w3.org/Graphics/SVG/1.1/DTD/svg11.dtd">
<svg version="1.1" id="Layer_1" xmlns="http://www.w3.org/2000/svg" xmlns:xlink="http://www.w3.org/1999/xlink" x="0px" y="0px"
	 width="18.125px" height="25.268px" viewBox="2.875 4.295 18.125 25.268" enable-background="new 2.875 4.295 18.125 25.268"
	 xml:space="preserve">
<path fill="#FFFFFF" stroke="#24242D" stroke-miterlimit="10" d="M11.951,17.192c-2.117,0-3.835-1.729-3.835-3.862
	c0-2.135,1.718-3.862,3.835-3.862c2.117,0,3.834,1.729,3.834,3.862C15.785,15.463,14.067,17.192,11.951,17.192 M11.951,4.813
	c-4.688,0-8.488,3.827-8.488,8.549c0,4.46,3.844,10.213,6.411,13.014c0.959,1.045,2.076,2.455,2.076,2.455s1.2-1.418,2.229-2.494
	c2.565-2.684,6.259-8.072,6.259-12.975C20.438,8.64,16.638,4.813,11.951,4.813"/>
</svg>
