<?xml version="1.0" encoding="utf-8"?>
<!-- Generator: Adobe Illustrator 16.0.0, SVG Export Plug-In . SVG Version: 6.00 Build 0)  -->
<!DOCTYPE svg PUBLIC "-//W3C//DTD SVG 1.0//EN" "http://www.w3.org/TR/2001/REC-SVG-20010904/DTD/svg10.dtd">
<svg version="1.0" id="WEBSITE_NAVIGATION_RETRO_LABELS_by_RedKoala"
	 xmlns="http://www.w3.org/2000/svg" xmlns:xlink="http://www.w3.org/1999/xlink" x="0px" y="0px" width="136px" height="135px"
	 viewBox="0 0 136 135" style="enable-background:new 0 0 136 135;" xml:space="preserve">
<style type="text/css">
<![CDATA[
	.st0{fill:#FFFFFF;}
	.st1{fill:#414042;}
]]>
</style>
<g id="MARKER">
	<g id="background_4_">
		<circle id="outline_5_" cx="69.119" cy="66.816" r="60.743"/>
		<g>
			<path id="stroke_4_" class="st0" d="M69.118,121.896c-30.372,0-55.081-24.709-55.081-55.08c0-30.373,24.709-55.082,55.081-55.082
				s55.081,24.709,55.081,55.082C124.199,97.188,99.49,121.896,69.118,121.896z M69.118,14.447
				c-28.876,0-52.369,23.492-52.369,52.369c0,28.875,23.493,52.369,52.369,52.369c28.877,0,52.37-23.494,52.37-52.369
				C121.488,37.939,97.995,14.447,69.118,14.447z"/>
			<path class="st1" d="M69.118,14.447c-28.876,0-52.369,23.492-52.369,52.369c0,28.875,23.493,52.369,52.369,52.369
				c28.877,0,52.37-23.494,52.37-52.369C121.488,37.939,97.995,14.447,69.118,14.447z"/>
		</g>
	</g>
	<g id="marker_2_">
		<g id="shadow_7_">
			<path d="M71.387,99.556c-2.248-2.715-22.078-27.009-22.078-38.615c0-12.313,9.904-22.33,22.078-22.33s22.077,10.018,22.077,22.33
				C93.464,72.547,73.634,96.841,71.387,99.556z M71.387,48.538c-5.788,0-10.497,4.761-10.497,10.611
				c0,5.852,4.709,10.613,10.497,10.613c5.787,0,10.496-4.762,10.496-10.613C81.883,53.299,77.174,48.538,71.387,48.538z"/>
			<path d="M65.093,60.195c-0.051,0-0.101-0.002-0.151-0.01c-0.602-0.083-1.022-0.645-0.939-1.254c0.568-4.185,4.149-7.34,8.33-7.34
				c0.606,0,1.099,0.497,1.099,1.112c0,0.612-0.492,1.11-1.099,1.11c-3.087,0-5.731,2.331-6.151,5.42
				C66.104,59.792,65.633,60.195,65.093,60.195z"/>
		</g>
		<g>
			<path class="st0" d="M69.119,97.288c-2.248-2.715-22.078-27.009-22.078-38.615c0-12.313,9.904-22.33,22.078-22.33
				s22.077,10.018,22.077,22.33C91.196,70.279,71.366,94.573,69.119,97.288z M69.119,46.271c-5.788,0-10.497,4.761-10.497,10.611
				c0,5.852,4.709,10.613,10.497,10.613c5.787,0,10.496-4.762,10.496-10.613C79.615,51.031,74.906,46.271,69.119,46.271z"/>
			<path class="st0" d="M62.825,57.928c-0.051,0-0.101-0.002-0.151-0.01c-0.602-0.083-1.022-0.645-0.939-1.254
				c0.568-4.185,4.149-7.34,8.33-7.34c0.606,0,1.099,0.497,1.099,1.112c0,0.612-0.492,1.11-1.099,1.11
				c-3.087,0-5.731,2.331-6.151,5.42C63.836,57.524,63.365,57.928,62.825,57.928z"/>
		</g>
	</g>
</g>
</svg>
